<svg id="Layer_1" data-name="Layer 1" xmlns="http://www.w3.org/2000/svg" viewBox="0 0 30.77 23.04"><defs><style>.cls-1,.cls-10{fill:none;}.cls-1,.cls-10,.cls-3,.cls-4,.cls-5,.cls-6,.cls-7,.cls-8,.cls-9{stroke:#fff;}.cls-1,.cls-10,.cls-2,.cls-3,.cls-4,.cls-5,.cls-6,.cls-7,.cls-8,.cls-9{stroke-miterlimit:10;}.cls-1{stroke-width:1.03px;}.cls-2{fill:#010101;stroke:#231f20;stroke-width:0.94px;}.cls-3,.cls-4,.cls-5,.cls-6,.cls-7,.cls-8,.cls-9{fill:#fff;}.cls-3{stroke-width:0.48px;}.cls-4{stroke-width:0.26px;}.cls-5{stroke-width:0.78px;}.cls-6{stroke-width:0.62px;}.cls-7{stroke-width:0.76px;}.cls-8{stroke-linecap:round;}.cls-8,.cls-9{stroke-width:0.66px;}.cls-10{stroke-width:0.33px;}</style></defs><title>brand-icon</title><g id="brand_dev" data-name="brand dev"><rect class="cls-1" x="6.14" y="0.52" width="17.42" height="13.92" rx="0.57"/><path class="cls-2" d="M9.18,34.63" transform="translate(-10.54 -13.29)"/><path class="cls-3" d="M39.63,32.66H11.17c-.21,0-.39-.08-.39-.19l5.51-3.06a.65.65,0,0,1,.41-.17H34.1c.21,0,.38.09.38.19l5.53,3C40,32.58,39.84,32.66,39.63,32.66Z" transform="translate(-10.54 -13.29)"/><path class="cls-4" d="M40,33.36H27.51l-.49,1H23.78l-.5-1H10.78a3.49,3.49,0,0,0,.49,1.7,2.36,2.36,0,0,0,1.62,1.14l25.33-.05a2.13,2.13,0,0,0,1.65-1.33A2.88,2.88,0,0,0,40,33.36Z" transform="translate(-10.54 -13.29)"/><polygon class="cls-5" points="27 6.97 18.34 9.75 17.59 5.65 26.25 2.87 27 6.97"/><polygon class="cls-6" points="16.83 6.09 14.72 8.71 17.5 9.75 16.83 6.09"/><path class="cls-7" d="M40.57,19.28,38.44,20l-.75-4.1,2.12-.68a.45.45,0,0,1,.56.41l.55,3A.63.63,0,0,1,40.57,19.28Z" transform="translate(-10.54 -13.29)"/><line class="cls-8" x1="17.23" y1="8.75" x2="16.68" y2="8.92"/><line class="cls-9" x1="26.55" y1="5.77" x2="17.85" y2="8.57"/><line class="cls-8" x1="29.78" y1="4.73" x2="27.69" y2="5.4"/><line class="cls-10" x1="27.02" y1="2.93" x2="27.77" y2="7.02"/><line class="cls-10" x1="16.92" y1="5.91" x2="17.67" y2="10.01"/><line class="cls-10" x1="17.51" y1="6.09" x2="18.26" y2="10.19"/></g></svg>