<svg id="Layer_1" data-name="Layer 1" xmlns="http://www.w3.org/2000/svg" viewBox="0 0 24.75 34.04"><defs><style>.cls-1,.cls-2,.cls-3{fill:none;stroke:#282828;stroke-linecap:round;stroke-miterlimit:10;}.cls-1{stroke-width:1.27px;}.cls-2{stroke-width:0.59px;}.cls-3{stroke-width:0.57px;}</style></defs><title>bulb-icon</title><g id="bulb"><path class="cls-1" d="M25,8.45c-3.85.12-7.46,2.11-10.07,6a10.66,10.66,0,0,0-1.37,8.21L21.27,35.3h7.46l7.71-12.68a10.66,10.66,0,0,0-1.37-8.21c-2.61-3.85-6.22-5.84-10.07-6" transform="translate(-12.63 -7.81)"/><line class="cls-1" x1="8.8" y1="29.38" x2="15.95" y2="29.38"/><line class="cls-1" x1="8.8" y1="31.43" x2="15.95" y2="31.43"/><line class="cls-1" x1="9.63" y1="33.4" x2="15.11" y2="33.4"/><path class="cls-1" d="M30.48,13.38s2.78,1.34,3.25,6.61" transform="translate(-12.63 -7.81)"/><polyline class="cls-2" points="8.42 13.16 10.2 16.18 11.15 27.1"/><path class="cls-2" d="M29,21" transform="translate(-12.63 -7.81)"/><path class="cls-2" d="M26.56,34.91" transform="translate(-12.63 -7.81)"/><path class="cls-3" d="M21.05,20.92a1.88,1.88,0,0,1,2.58,0" transform="translate(-12.63 -7.81)"/><path class="cls-3" d="M23.78,20.92a1.89,1.89,0,0,1,2.59,0" transform="translate(-12.63 -7.81)"/><path class="cls-3" d="M26.37,20.92a1.88,1.88,0,0,1,2.58,0" transform="translate(-12.63 -7.81)"/><path class="cls-2" d="M28.44,24" transform="translate(-12.63 -7.81)"/><path class="cls-2" d="M28.44,24" transform="translate(-12.63 -7.81)"/><polyline class="cls-2" points="16.4 13.16 14.61 16.18 13.67 27.1"/></g></svg>