<svg id="Layer_1" data-name="Layer 1" xmlns="http://www.w3.org/2000/svg" viewBox="0 0 42.58 34.17"><defs><style>.cls-1,.cls-2,.cls-3{fill:none;stroke-miterlimit:10;}.cls-1,.cls-3{stroke:#282828;}.cls-1{stroke-width:1.41px;}.cls-2{stroke:#fff;stroke-width:4.42px;}.cls-2,.cls-3{stroke-linecap:round;}.cls-3{stroke-width:2.06px;}</style></defs><title>compliance-icon</title><g id="compliance"><path class="cls-1" d="M41.38,24.83a16.38,16.38,0,1,1-2.8-9.16A16.38,16.38,0,0,1,41.38,24.83Z" transform="translate(-3.83 -7.74)"/><path class="cls-1" d="M31.44,18.17a6.83,6.83,0,0,0-6.88-4.68c-3,.23-5.52,2.76-5.62,4.92-.14,3.32,1.32,5,5.53,5.86s6.75,3.54,7,5.52c.27,2.48-1.17,4.68-4.25,5.94a6.74,6.74,0,0,1-8.4-2.88" transform="translate(-3.83 -7.74)"/><line class="cls-1" x1="21.17" y1="28.43" x2="21.17" y2="31.22"/><line class="cls-1" x1="21.17" y1="3.16" x2="21.17" y2="5.74"/><polyline class="cls-2" points="40.37 6.63 14.02 26.05 2.21 18.23"/><polyline class="cls-3" points="40.37 6.63 14.02 26.05 2.21 18.23"/></g></svg>