<svg id="Layer_1" data-name="Layer 1" xmlns="http://www.w3.org/2000/svg" viewBox="0 0 32.73 30.36"><defs><style>.cls-1,.cls-2,.cls-3{fill:none;stroke:#282828;stroke-miterlimit:10;}.cls-2{stroke-width:1.2px;}.cls-3{stroke-width:1.16px;}</style></defs><title>direciting-icon</title><g id="bullhorn"><path class="cls-1" d="M19.15,28.75l1.74,9.89a.81.81,0,0,1-.82,1H17.41a1.26,1.26,0,0,1-1.18-1L14.43,28.4" transform="translate(-8.69 -9.78)"/><path class="cls-1" d="M36.14,10.61a17.81,17.81,0,0,1-8.73,4.52,72.93,72.93,0,0,1-8.89,1.4c-4,.51-6.21,0-7.49,1.32-2.36,2.46-2.48,7.35-.22,9.76,1.14,1.21,3.69.9,7.57,1.4a81.94,81.94,0,0,1,8.73,1.25c5.44,1.15,7.11,3.32,9,3.8" transform="translate(-8.69 -9.78)"/><path class="cls-2" d="M38.35,17.29h.7a1.76,1.76,0,0,1,1.76,1.77V25.4a1.76,1.76,0,0,1-1.76,1.77h-.7" transform="translate(-8.69 -9.78)"/><rect class="cls-3" x="26.54" y="0.58" width="3.64" height="23.94" rx="1.82"/><line class="cls-3" x1="12.21" y1="6.82" x2="12.21" y2="19.17"/><path class="cls-1" d="M23.15,29.75c0,.5-.13,2.76-.51,3.14a4.55,4.55,0,0,1-2.61.45" transform="translate(-8.69 -9.78)"/></g></svg>