<svg id="Layer_1" data-name="Layer 1" xmlns="http://www.w3.org/2000/svg" viewBox="0 0 33.76 34.9"><defs><style>.cls-1,.cls-2{fill:none;stroke:#231f20;}.cls-1{stroke-linecap:round;stroke-linejoin:bevel;}.cls-2{stroke-miterlimit:10;}</style></defs><title>mail-icon</title><g id="direct_mail" data-name="direct mail"><polyline class="cls-1" points="0.5 14.74 0.5 34.4 33.26 34.4 33.26 14.74"/><path class="cls-2" d="M8.62,41.21l14.47-10a3.37,3.37,0,0,1,3.82,0L41.38,41.21" transform="translate(-8.12 -6.8)"/><line class="cls-2" x1="11.3" y1="26.9" x2="0.5" y2="19.41"/><line class="cls-2" x1="33.26" y1="19.41" x2="22.46" y2="26.9"/><polyline class="cls-2" points="3.58 21.73 3.58 2.38 30.05 2.38 30.05 21.64"/><line class="cls-1" x1="30.15" y1="11.8" x2="33.26" y2="14.75"/><path class="cls-2" d="M21.59,9.18l1-.92a3.46,3.46,0,0,1,4.77,0l.82.78" transform="translate(-8.12 -6.8)"/><line class="cls-1" x1="0.5" y1="14.75" x2="3.58" y2="11.8"/><rect class="cls-2" x="5.9" y="5" width="10.85" height="15.65"/><rect class="cls-2" x="19.02" y="5" width="8.84" height="7.06"/><rect class="cls-2" x="19.02" y="14.28" width="8.84" height="6.36"/></g></svg>