<svg id="Layer_1" data-name="Layer 1" xmlns="http://www.w3.org/2000/svg" viewBox="0 0 35.07 32.65"><defs><style>.cls-1,.cls-2,.cls-3,.cls-5,.cls-6,.cls-7{fill:none;}.cls-1,.cls-2,.cls-3,.cls-4,.cls-5,.cls-6,.cls-7{stroke:#282828;stroke-miterlimit:10;}.cls-1{stroke-width:1.31px;}.cls-2{stroke-width:1.18px;}.cls-3{stroke-width:3.24px;}.cls-4{fill:#282828;stroke-width:1.52px;}.cls-5,.cls-6,.cls-7{stroke-linecap:round;}.cls-5{stroke-width:0.92px;}.cls-6{stroke-width:1.76px;}.cls-7{stroke-width:1.31px;}</style></defs><title>target-icon</title><g id="vote_targeting" data-name="vote targeting"><path class="cls-1" d="M34.64,19.73V15.45S34,10.3,29.53,9.58h-17v31H34.64V34.84" transform="translate(-11.86 -8.92)"/><path class="cls-2" d="M34.37,14.4c-3.84,1.2-4.7.76-5.19.68-1-.15.43-.86.6-2.5a5.25,5.25,0,0,0-.39-2.65" transform="translate(-11.86 -8.92)"/><path class="cls-3" d="M39.76,27.88a9.5,9.5,0,0,1-2.46,6.17,9.19,9.19,0,0,1-6.52,2.81c-4.24-.1-9-3.65-9-9a9,9,0,0,1,18,0Z" transform="translate(-11.86 -8.92)"/><line class="cls-1" x1="23.61" y1="12.33" x2="23.61" y2="25.08"/><path class="cls-4" d="M37.82,33.17c1.66-.24,3.15,2.59,6.69,4,.66.27,1.35.44,1.58,1a2.19,2.19,0,0,1-1.56,2.56c-.64,0-1.06-.61-1.73-1.36-2.76-3.06-5.19-4-5.27-5.64C37.49,32.89,36.93,33.3,37.82,33.17Z" transform="translate(-11.86 -8.92)"/><line class="cls-5" x1="2.77" y1="3.37" x2="6.95" y2="3.37"/><line class="cls-5" x1="2.77" y1="5.86" x2="6.95" y2="5.86"/><line class="cls-5" x1="2.77" y1="8.36" x2="6.95" y2="8.36"/><line class="cls-5" x1="2.77" y1="10.85" x2="6.95" y2="10.85"/><line class="cls-5" x1="2.77" y1="13.34" x2="6.95" y2="13.34"/><line class="cls-5" x1="2.77" y1="15.83" x2="6.95" y2="15.83"/><line class="cls-5" x1="2.77" y1="18.33" x2="6.95" y2="18.33"/><line class="cls-5" x1="2.77" y1="20.82" x2="6.95" y2="20.82"/><line class="cls-5" x1="2.77" y1="23.31" x2="6.95" y2="23.31"/><line class="cls-5" x1="2.77" y1="25.81" x2="6.95" y2="25.81"/><line class="cls-5" x1="2.77" y1="28.3" x2="6.95" y2="28.3"/><line class="cls-5" x1="9.75" y1="3.37" x2="13.93" y2="3.37"/><line class="cls-5" x1="9.75" y1="5.86" x2="13.93" y2="5.86"/><line class="cls-5" x1="9.75" y1="8.36" x2="13.93" y2="8.36"/><line class="cls-5" x1="9.75" y1="10.85" x2="13.93" y2="10.85"/><line class="cls-6" x1="11.84" y1="13.34" x2="13.93" y2="13.34"/><line class="cls-6" x1="9.75" y1="15.83" x2="13.93" y2="15.83"/><line class="cls-6" x1="9.75" y1="18.33" x2="13.93" y2="18.33"/><line class="cls-6" x1="9.75" y1="20.82" x2="13.93" y2="20.82"/><line class="cls-6" x1="10.59" y1="23.31" x2="13.93" y2="23.31"/><line class="cls-5" x1="9.75" y1="25.81" x2="13.93" y2="25.81"/><line class="cls-5" x1="9.75" y1="28.3" x2="13.93" y2="28.3"/><line class="cls-5" x1="9.63" y1="13.34" x2="13.8" y2="13.34"/><line class="cls-5" x1="16.68" y1="3.37" x2="17.69" y2="3.37"/><line class="cls-5" x1="16.68" y1="5.86" x2="16.95" y2="5.86"/><line class="cls-5" x1="16.68" y1="8.36" x2="20.86" y2="8.36"/><line class="cls-7" x1="16.68" y1="10.85" x2="20.86" y2="10.85"/><line class="cls-6" x1="16.68" y1="13.34" x2="20.86" y2="13.34"/><line class="cls-6" x1="16.68" y1="15.83" x2="20.86" y2="15.83"/><line class="cls-6" x1="16.68" y1="18.33" x2="20.86" y2="18.33"/><line class="cls-6" x1="16.68" y1="20.82" x2="20.86" y2="20.82"/><line class="cls-6" x1="16.68" y1="23.31" x2="20.86" y2="23.31"/><line class="cls-6" x1="16.68" y1="25.81" x2="20.86" y2="25.81"/><line class="cls-7" x1="16.68" y1="28.3" x2="20.86" y2="28.3"/></g></svg>