<svg id="Layer_1" data-name="Layer 1" xmlns="http://www.w3.org/2000/svg" viewBox="0 0 37.92 35.29"><defs><style>.cls-1,.cls-2,.cls-3,.cls-5,.cls-6,.cls-7{fill:none;}.cls-1,.cls-2,.cls-3,.cls-4,.cls-5,.cls-6,.cls-7{stroke:#231f20;stroke-miterlimit:10;}.cls-1{stroke-width:1.41px;}.cls-2{stroke-width:1.27px;}.cls-3{stroke-width:3.5px;}.cls-4{fill:#020202;stroke-width:1.64px;}.cls-5,.cls-6,.cls-7{stroke-linecap:round;}.cls-6{stroke-width:1.9px;}.cls-7{stroke-width:1.41px;}</style></defs><title>target-icon</title><g id="vote_targeting" data-name="vote targeting"><path class="cls-1" d="M36.23,19.1V14.46S35.5,8.9,30.7,8.12H12.3V41.68H36.23V35.43" transform="translate(-11.6 -7.41)"/><path class="cls-2" d="M35.94,13.33c-4.15,1.3-5.08.82-5.62.74-1.11-.17.47-.94.66-2.71a5.64,5.64,0,0,0-.43-2.86" transform="translate(-11.6 -7.41)"/><path class="cls-3" d="M41.76,27.9a10.29,10.29,0,0,1-2.66,6.68,9.93,9.93,0,0,1-7.05,3c-4.57-.1-9.71-3.94-9.71-9.71a9.71,9.71,0,0,1,19.42,0Z" transform="translate(-11.6 -7.41)"/><line class="cls-1" x1="25.53" y1="13.33" x2="25.53" y2="27.11"/><path class="cls-4" d="M39.67,33.63c1.79-.27,3.41,2.8,7.23,4.36.71.29,1.46.48,1.71,1.12a2.36,2.36,0,0,1-1.69,2.77c-.69,0-1.14-.66-1.87-1.46-3-3.32-5.61-4.37-5.7-6.11C39.3,33.33,38.71,33.77,39.67,33.63Z" transform="translate(-11.6 -7.41)"/><line class="cls-5" x1="3" y1="3.64" x2="7.51" y2="3.64"/><line class="cls-5" x1="3" y1="6.34" x2="7.51" y2="6.34"/><line class="cls-5" x1="3" y1="9.03" x2="7.51" y2="9.03"/><line class="cls-5" x1="3" y1="11.73" x2="7.51" y2="11.73"/><line class="cls-5" x1="3" y1="14.42" x2="7.51" y2="14.42"/><line class="cls-5" x1="3" y1="17.12" x2="7.51" y2="17.12"/><line class="cls-5" x1="3" y1="19.81" x2="7.51" y2="19.81"/><line class="cls-5" x1="3" y1="22.51" x2="7.51" y2="22.51"/><line class="cls-5" x1="3" y1="25.2" x2="7.51" y2="25.2"/><line class="cls-5" x1="3" y1="27.9" x2="7.51" y2="27.9"/><line class="cls-5" x1="3" y1="30.59" x2="7.51" y2="30.59"/><line class="cls-5" x1="10.55" y1="3.64" x2="15.06" y2="3.64"/><line class="cls-5" x1="10.55" y1="6.34" x2="15.06" y2="6.34"/><line class="cls-5" x1="10.55" y1="9.03" x2="15.06" y2="9.03"/><line class="cls-5" x1="10.55" y1="11.73" x2="15.06" y2="11.73"/><line class="cls-6" x1="12.8" y1="14.42" x2="15.06" y2="14.42"/><line class="cls-6" x1="10.55" y1="17.12" x2="15.06" y2="17.12"/><line class="cls-6" x1="10.55" y1="19.81" x2="15.06" y2="19.81"/><line class="cls-6" x1="10.55" y1="22.51" x2="15.06" y2="22.51"/><line class="cls-6" x1="11.45" y1="25.2" x2="15.06" y2="25.2"/><line class="cls-5" x1="10.55" y1="27.9" x2="15.06" y2="27.9"/><line class="cls-5" x1="10.55" y1="30.59" x2="15.06" y2="30.59"/><line class="cls-5" x1="10.41" y1="14.42" x2="14.92" y2="14.42"/><line class="cls-5" x1="18.04" y1="3.64" x2="19.13" y2="3.64"/><line class="cls-5" x1="18.04" y1="6.34" x2="18.33" y2="6.34"/><line class="cls-5" x1="18.04" y1="9.03" x2="22.55" y2="9.03"/><line class="cls-7" x1="18.04" y1="11.73" x2="22.55" y2="11.73"/><line class="cls-6" x1="18.04" y1="14.42" x2="22.55" y2="14.42"/><line class="cls-6" x1="18.04" y1="17.12" x2="22.55" y2="17.12"/><line class="cls-6" x1="18.04" y1="19.81" x2="22.55" y2="19.81"/><line class="cls-6" x1="18.04" y1="22.51" x2="22.55" y2="22.51"/><line class="cls-6" x1="18.04" y1="25.2" x2="22.55" y2="25.2"/><line class="cls-6" x1="18.04" y1="27.9" x2="22.55" y2="27.9"/><line class="cls-7" x1="18.04" y1="30.59" x2="22.55" y2="30.59"/></g></svg>