<svg id="Layer_7" data-name="Layer 7" xmlns="http://www.w3.org/2000/svg" viewBox="0 0 78.45 141.39"><defs><style>.cls-1{fill:#345caa;}</style></defs><title>left-arrow</title><path class="cls-1" d="M81.68,129.33l-6.27-6.27-15-15L42.26,89.9,26.51,74.16c-2.55-2.56-5-5.19-7.67-7.67l-.11-.11v11L25,71.14l15-15L58.16,38,73.91,22.23c2.55-2.55,5.16-5.06,7.66-7.66a1.14,1.14,0,0,1,.11-.11c2.89-2.89,3.1-8.18,0-11a7.94,7.94,0,0,0-11,0L64.39,9.7l-15,15.05L31.23,42.86,15.49,58.61c-2.56,2.55-5.17,5.06-7.67,7.66l-.11.11a7.91,7.91,0,0,0,0,11L14,83.67l15,15,18.12,18.11,15.74,15.75c2.56,2.55,5.06,5.16,7.67,7.66l.11.11c2.88,2.89,8.17,3.1,11,0a7.93,7.93,0,0,0,0-11Z" transform="translate(-5.48 -1.21)"/></svg>