<svg id="fleitas" xmlns="http://www.w3.org/2000/svg" xmlns:xlink="http://www.w3.org/1999/xlink" viewBox="0 0 144 144"><defs><style>.cls-1,.cls-10,.cls-11,.cls-12,.cls-13,.cls-14,.cls-15{fill:none;}.cls-2{clip-path:url(#clip-path);}.cls-3{fill:#172243;}.cls-4{clip-path:url(#clip-path-2);}.cls-5{font-size:10.45px;}.cls-5,.cls-6,.cls-9{fill:#fff;}.cls-5,.cls-6,.cls-7,.cls-8,.cls-9{font-family:OpenSans-ExtraBold, Open Sans;font-weight:800;}.cls-6{font-size:26.35px;}.cls-7{font-size:6.03px;}.cls-7,.cls-8{fill:#ee2926;}.cls-8{font-size:11.03px;}.cls-9{font-size:4.56px;}.cls-10,.cls-11,.cls-12,.cls-13,.cls-14,.cls-15{stroke:#fff;}.cls-10{stroke-width:0.88px;}.cls-11{stroke-width:0.88px;}.cls-12{stroke-width:0.88px;}.cls-13{stroke-width:0.88px;}.cls-14{stroke-width:0.88px;}.cls-15{stroke-width:0.88px;}</style><clipPath id="clip-path"><rect class="cls-1" x="4.93" y="4.93" width="134.14" height="134.14"/></clipPath><clipPath id="clip-path-2"><rect class="cls-1" x="8.44" y="24.33" width="127.12" height="95.34"/></clipPath></defs><title>logo-victor</title><g class="cls-2"><rect class="cls-3" x="4.93" y="4.93" width="134.14" height="134.14"/></g><g class="cls-4"><text class="cls-5" transform="translate(27.74 59.32)">V</text><text class="cls-5" transform="translate(34.99 59.32)">I</text><text class="cls-5" transform="translate(38.62 59.32)">C</text><text class="cls-5" transform="translate(45.4 59.32)">T</text><text class="cls-5" transform="translate(51.57 59.32)">O</text><text class="cls-5" transform="translate(59.9 59.32)">R</text><text class="cls-6" transform="translate(17.98 81.47)">F</text><text class="cls-6" transform="translate(32.18 81.47)">L</text><text class="cls-6" transform="translate(47.52 81.47)">E</text><text class="cls-6" transform="translate(61.98 81.47)">I</text><text class="cls-6" transform="translate(71.16 81.47)">T</text><text class="cls-6" transform="translate(86.73 81.47)">A</text><text class="cls-6" transform="translate(105.86 81.47)">S</text><text class="cls-7" transform="translate(55.43 90.37)">F</text><text class="cls-7" transform="translate(58.68 90.37)">O</text><text class="cls-7" transform="translate(63.48 90.37)">R</text><text class="cls-7" transform="translate(67.57 90.37)"> </text><text class="cls-8" transform="translate(69.13 91.3)">MAYOR</text><text class="cls-9" transform="translate(76.83 96.1)">T</text><text class="cls-9" transform="translate(79.52 96.1)">U</text><text class="cls-9" transform="translate(82.98 96.1)">P</text><text class="cls-9" transform="translate(85.86 96.1)">E</text><text class="cls-9" transform="translate(88.36 96.1)">L</text><text class="cls-9" transform="translate(91.01 96.1)">O</text><text class="cls-9" transform="translate(94.65 96.1)">,</text><text class="cls-9" transform="translate(96.06 96.1)"> </text><text class="cls-9" transform="translate(97.24 96.1)">2</text><text class="cls-9" transform="translate(99.92 96.1)">0</text><text class="cls-9" transform="translate(102.59 96.1)">2</text><text class="cls-9" transform="translate(105.26 96.1)">1</text><line class="cls-10" x1="69.13" y1="55.13" x2="133.58" y2="55.13"/><line class="cls-11" x1="123.02" y1="88.47" x2="133.14" y2="55.33"/><line class="cls-12" x1="112.35" y1="88.16" x2="123.33" y2="88.16"/><line class="cls-13" x1="18.89" y1="55.53" x2="25.29" y2="55.53"/><line class="cls-14" x1="12.35" y1="88.6" x2="19.25" y2="55.21"/><line class="cls-15" x1="11.92" y1="88.6" x2="52.96" y2="88.6"/></g></svg>