<svg id="Layer_7" data-name="Layer 7" xmlns="http://www.w3.org/2000/svg" viewBox="0 0 78.45 141.39"><defs><style>.cls-1{fill:#345caa;}</style></defs><title>right-arroq</title><path class="cls-1" d="M70.66,14.46l6.26,6.26L92,35.77l18.11,18.11,15.75,15.75c2.55,2.55,5,5.19,7.66,7.66l.11.11v-11l-6.26,6.27-15,15L94.18,105.81,78.43,121.55c-2.55,2.56-5.16,5.06-7.66,7.67a1.14,1.14,0,0,0-.11.11c-2.89,2.89-3.1,8.17,0,11a7.93,7.93,0,0,0,11,0L88,134.08l15-15,18.12-18.11,15.74-15.75c2.56-2.55,5.17-5.06,7.67-7.67l.11-.11a7.92,7.92,0,0,0,0-11l-6.27-6.27-15.05-15L105.2,27,89.46,11.21C86.9,8.66,84.4,6,81.79,3.54a1.14,1.14,0,0,1-.11-.11c-2.89-2.88-8.17-3.1-11,0a7.94,7.94,0,0,0,0,11Z" transform="translate(-68.41 -1.19)"/></svg>