<svg id="Layer_1" data-name="Layer 1" xmlns="http://www.w3.org/2000/svg" viewBox="0 0 255.55 101.48"><defs><style>.cls-1,.cls-4{fill:none;stroke:#282828;stroke-miterlimit:10;}.cls-1{stroke-width:3.52px;}.cls-2{fill:#282828;}.cls-3{fill:#f2f9f1;}.cls-4{stroke-width:4.66px;}</style></defs><title>black-top</title><path class="cls-1" d="M700.59,802.09c-5.9,2.33-9.15,4.9-9.15,7.57a4.65,4.65,0,0,0,1.64,3.26" transform="translate(-689.51 -745.31)"/><path class="cls-1" d="M692.1,822.52a4,4,0,0,0-.83,2.33c0,11.15,56.42,20.18,126,20.18s126-9,126-20.18a4,4,0,0,0-.75-2.22" transform="translate(-689.51 -745.31)"/><path class="cls-2" d="M869.75,755c25.71,2.13,42.61,5.75,42.61,9.84,0,6.55-43.37,11.86-96.85,11.86-9.36,0-18.4-.16-27-.47h0Z" transform="translate(-689.51 -745.31)"/><path class="cls-1" d="M724.43,775.23c20.65,4.64,54.94,7.69,93.76,7.69,46.36,0,86.27-4.35,104.17-10.58" transform="translate(-689.51 -745.31)"/><path class="cls-1" d="M932.22,764c-3.44-9.42-53.18-16.89-114-16.89-61.5,0-111.65,7.63-114.13,17.19" transform="translate(-689.51 -745.31)"/><path class="cls-1" d="M788.39,776.26h.16c8.56.31,17.6.47,27,.47,53.48,0,96.85-5.31,96.85-11.86,0-4.09-16.9-7.71-42.61-9.84-15.47-1.28-34.14-2-54.24-2-47.79,0-72.18,3.48-84,8.32" transform="translate(-689.51 -745.31)"/><polyline class="cls-1" points="180.35 9.7 180.24 9.73 99.04 30.94"/><path class="cls-2" d="M702.36,763.56c-2.57,12.63-1.79,25.62-3.93,38.3-.38,2.22,3,3.17,3.39.94,2.14-12.68,1.36-25.69,3.93-38.31.45-2.21-2.94-3.15-3.39-.93Z" transform="translate(-689.51 -745.31)"/><path class="cls-2" d="M692,814.25c.15.13.28.29.43.43s-.15-.24,0,0,.1.14.15.22.2.35.29.53,0,.08,0,0a2.67,2.67,0,0,0,.09.26,5.66,5.66,0,0,1,.15.59,2.56,2.56,0,0,1,0,.27c0,.25,0-.31,0-.06,0,.42,0,.82,0,1.24,0,.25.06-.31,0-.06l-.06.27a4.47,4.47,0,0,1-.16.63c-.06.19-.13.38-.2.57.06-.16.07-.17,0,0l-.17.33-.3.52-.21.31c-.1.13-.11.12,0,0a10.65,10.65,0,0,1-.94,1,1.77,1.77,0,0,0,0,2.49,1.81,1.81,0,0,0,2.49,0c3.28-2.87,4.47-8.72.92-11.89a1.76,1.76,0,0,0-2.49,2.49Z" transform="translate(-689.51 -745.31)"/><path class="cls-2" d="M930.63,763.63l4.22,39.72a1.81,1.81,0,0,0,1.76,1.75,1.77,1.77,0,0,0,1.76-1.75l-4.23-39.72a1.8,1.8,0,0,0-1.76-1.75,1.76,1.76,0,0,0-1.75,1.75Z" transform="translate(-689.51 -745.31)"/><path class="cls-2" d="M935.56,805a9.86,9.86,0,0,0,2.3,2.07,29.73,29.73,0,0,0,2.82,1.28c1.16.61.41,2.41,0,3.26-1,1.87-2.16,3.66-2.09,5.86A12.86,12.86,0,0,0,941,823.7c1.2,1.91,4.25.15,3-1.77-1-1.59-2.38-3.57-1.83-5.55s2-3.43,2.43-5.44a5.11,5.11,0,0,0-1.63-5.27,20.4,20.4,0,0,0-2.72-1.27,7.08,7.08,0,0,1-2.22-1.89,1.77,1.77,0,0,0-2.49,0,1.8,1.8,0,0,0,0,2.48Z" transform="translate(-689.51 -745.31)"/><path class="cls-2" d="M920.51,773.24l4.93,32.57A1.77,1.77,0,0,0,927.6,807a1.8,1.8,0,0,0,1.23-2.16l-4.93-32.57a1.77,1.77,0,0,0-2.16-1.23,1.8,1.8,0,0,0-1.23,2.16Z" transform="translate(-689.51 -745.31)"/><path class="cls-2" d="M723.05,776.6l-2.42,29.18c-.19,2.25,3.33,2.24,3.51,0l2.42-29.18c.19-2.26-3.33-2.24-3.51,0Z" transform="translate(-689.51 -745.31)"/><path class="cls-2" d="M725.14,777.5a1.76,1.76,0,0,0,0-3.51,1.76,1.76,0,0,0,0,3.51Z" transform="translate(-689.51 -745.31)"/><path class="cls-2" d="M881.07,790.24c-.29.4-.05-.12.28.17s.34.12.56.58c.46,1,.2,2.31.13,3.32q-.27,3.9-.24,7.81t.42,8a36.35,36.35,0,0,0,1,7.2,10.24,10.24,0,0,0,4.06,5.12c2.14,1.61,4.3,3.19,6.46,4.78a33.88,33.88,0,0,1,2.81,2.12s.43.37.45.52c0-.38,0-.18-.24-.09a15.45,15.45,0,0,1-1.59.63c-1.88.57-3.84.85-5.74,1.36a13.2,13.2,0,0,0-5.21,2.54c-1.31,1.11-2.11,3-3.59,3.9s-3.32-1.13-4.51-1.88a13.66,13.66,0,0,0-6.42-1.89,58.25,58.25,0,0,0-7,.14l-8.12.38c-5.3.25-10.61.53-15.91.75a118.62,118.62,0,0,1-17.38-.29,63.12,63.12,0,0,1-16.82-4.28l.42,3.22c6.71-3.53,14.62-2.7,21.91-2.31a118.09,118.09,0,0,0,24.64-1.18,113,113,0,0,0,12.32-2.64c3.34-.91,7-1.81,9.84-3.91,3.07-2.27,4.12-5.56,3.91-9.28-.23-4.22-.76-8.44-1.15-12.64-.2-2.18-.53-4.38-.58-6.56a3.13,3.13,0,0,1,.34-2c.44-.53,1.45-.56,2.07-.85a2.73,2.73,0,0,0,1.36-4c-.88-1.42-3.25-1.95-4-.13a1.8,1.8,0,0,0,.63,2.4,1.76,1.76,0,0,0,2.4-.63l-1.76.41c-.39-.27-.42-.67-.07-1.2a3.39,3.39,0,0,0-.84.26,5.2,5.2,0,0,0-2,1,5.36,5.36,0,0,0-1.61,3.71,28.63,28.63,0,0,0,.31,4.89l.54,5.83c.34,3.66,1,7.5.88,11.18-.14,3.23-2.3,5-5.12,6.19a66.11,66.11,0,0,1-10.23,3,108.8,108.8,0,0,1-10.76,2,121.37,121.37,0,0,1-22.39.62c-7.59-.43-15.47-.8-22.41,2.85-1.47.78-.87,2.7.42,3.22,10.81,4.34,22.16,5.15,33.69,4.74,5.79-.21,11.57-.53,17.36-.8l8.85-.42a36,36,0,0,1,7.41,0,9.19,9.19,0,0,1,3.34,1.17c1,.59,1.8,1.35,2.79,1.88a5.3,5.3,0,0,0,6.16-.43c1.53-1.24,2.37-3.18,4.06-4.26a18.21,18.21,0,0,1,6-2c2-.44,4.68-.85,6.22-2.37,2-2,.65-4.48-1.23-5.91-2.33-1.78-4.71-3.5-7.07-5.24-2.12-1.58-4.23-2.82-4.79-5.56a78.14,78.14,0,0,1-1-19.2c.13-2.64.82-6-1.24-8.09a4,4,0,0,0-6.16.3c-1.34,1.82,1.71,3.58,3,1.77Z" transform="translate(-689.51 -745.31)"/><path class="cls-2" d="M721.3,805a11.8,11.8,0,0,0-7.07,6.22,1.89,1.89,0,0,0-.18,1.36,1.84,1.84,0,0,0,.81,1.05,1.78,1.78,0,0,0,2.4-.63,10.24,10.24,0,0,1,1-1.73l.16-.22c-.32.45-.13.17,0,.07l.29-.34c.24-.26.48-.5.74-.74l.38-.32c.05,0,.27-.22,0,0s0,0,.08,0a8,8,0,0,1,.83-.55c.29-.17.58-.32.88-.46l.21-.09c-.49.24-.21.09-.08,0s.34-.12.51-.18a1.76,1.76,0,1,0-.94-3.39Z" transform="translate(-689.51 -745.31)"/><path class="cls-2" d="M733.34,777.45l-2.1,23.8-.27,3a11.93,11.93,0,0,1-.24,2.75c-.18.49.13.23-.39.46a6.33,6.33,0,0,1-1.07.21,8.84,8.84,0,0,0-2,.8,9.19,9.19,0,0,0-4.64,7c-.13.95.9,1.75,1.76,1.76a1.79,1.79,0,0,0,1.75-1.76A5.48,5.48,0,0,1,728,812.2c1.13-1,2.32-1,3.67-1.47a3.9,3.9,0,0,0,2.6-3.66c.23-1.93.35-3.88.52-5.82l2.11-23.8c.19-2.26-3.32-2.24-3.52,0Z" transform="translate(-689.51 -745.31)"/><path class="cls-2" d="M874.49,816.4l0-.25-15.14,8.59.35.07-8.6-15.14-.1.42,3.17-5.43c3.63-2.92.5-1.34-1.5-1.12-2.57.28-5.17.36-7.75.54l-15.42,1.07c-6.63.47-12.3,5.33-12.3,12.31,0,6.3,5.64,12.77,12.3,12.31,8-.56,16-1,24-1.68s19-2.46,21.32-11.87c1.49-6.1-1.91-13.82-8.6-15.14L866,801c-6.19-1.23-13.72,1.7-15.14,8.59l0,.26c-1.35,6.5,1.89,13.29,8.59,15.13,6.1,1.68,13.79-2,15.14-8.59Z" transform="translate(-689.51 -745.31)"/><path class="cls-2" d="M779.78,789.19a232,232,0,0,0,24.41,2,4.43,4.43,0,0,0,4.39-4.4,4.48,4.48,0,0,0-4.39-4.4q-5.72-.15-11.42-.6-2.73-.23-5.46-.51l-2.73-.31-1.59-.19-.87-.11a4.92,4.92,0,0,0-3.39.44,4.51,4.51,0,0,0-2,2.63c-.47,2.06.64,5.08,3.07,5.41Z" transform="translate(-689.51 -745.31)"/><path class="cls-2" d="M804.76,792.14a45.67,45.67,0,0,0,13.63,1.45c4.64-.08,9.27-.28,13.91-.41q14.33-.42,28.65-.66,8.1-.15,16.2-.24l-2.22-8.19c-.91.41.32-.09-.54.23-.4.15-.8.31-1.21.45-.81.28-1.64.52-2.47.74s-1.68.39-2.53.53c-.17,0-1.31.17-.53.08-.5.06-1,.11-1.5.14a31.74,31.74,0,0,1-5.16-.08l-.64-.06c.38,0,.42.06.1,0l-1.27-.22c-.92-.18-1.82-.4-2.72-.66v8.48l17.74-3.17c2.15-.38,3.42-2.84,3.15-4.82a4.39,4.39,0,0,0-4.32-3.81q-26.13-.15-52.25.79-7.46.27-14.91.63a4.4,4.4,0,1,0,0,8.79q26.1-1.26,52.23-1.42,7.47,0,14.93,0l-1.16-8.64-17.75,3.17a4.41,4.41,0,0,0-3.22,4.24,4.52,4.52,0,0,0,3.22,4.24,36.69,36.69,0,0,0,25.24-2.05,4.39,4.39,0,0,0,2-5,4.49,4.49,0,0,0-4.23-3.23q-28.12.33-56.23,1.24c-2.37.08-4.75.13-7.12,0-.61,0-1.22-.07-1.83-.13l-.91-.09c-.76-.08.57.1-.18,0a32.29,32.29,0,0,1-3.78-.85,4.44,4.44,0,0,0-5.41,3.07,4.49,4.49,0,0,0,3.07,5.41Z" transform="translate(-689.51 -745.31)"/><path class="cls-2" d="M875.45,788.41c8,1.86,15.85,0,23.69-1.59,1-.19,1.93-.37,2.9-.54l1.34-.21A2.39,2.39,0,0,1,904,786a54.63,54.63,0,0,1,5.71-.32c4.61,0,9.11-1.08,11.73-5.21a4.42,4.42,0,0,0-1.58-6,4.48,4.48,0,0,0-6,1.58c-.24.36-.27.42-.09.16s.13-.22-.17.1q.54-.37.15-.12c-.16.11-.33.2-.49.29-.73.42.53,0-.37.12-.33.06-.65.17-1,.23s-.31.05,0,0l-.48,0c-.48,0-1,0-1.45,0-.94,0-1.88,0-2.82,0a72.4,72.4,0,0,0-10.76,1.52c-1.63.32-3.25.67-4.88,1-.81.16-1.62.31-2.44.45l-1.32.21c-1.44.23.84-.08-.6.09a39,39,0,0,1-4.83.28c-.88,0-1.75-.07-2.63-.15.77.07-.42-.07-.57-.1-.44-.08-.87-.17-1.31-.28a4.4,4.4,0,0,0-2.33,8.48Z" transform="translate(-689.51 -745.31)"/><path class="cls-2" d="M910.3,825.51a28.38,28.38,0,0,0-9.3-9,4.4,4.4,0,0,0-5.33,6.9c.24.26.48.52.71.79s.6.76.24.28a19.35,19.35,0,0,1,1.17,1.77c.32.54.62,1.11.9,1.68.11.24.37.89.15.32.15.39.29.79.43,1.2l8-3.39c-2.11-3.89-4.41-7.47-8-10.17-.46-.35-.94-.67-1.41-1-.82-.58.15.23-.41-.34-.33-.34-.67-.67-1-1-.66-.71.28.54-.16-.23-.23-.41-.5-.8-.71-1.21s-.43-1-.15-.24a19.26,19.26,0,0,1-.8-2.58c-.09-.42-.16-.84-.24-1.26-.17-.88.05.7-.06-.47-.08-.86-.12-1.72-.12-2.59a53.54,53.54,0,0,1,.4-5.94c.52-4.78,1-9.41,0-14.17-.88-4.32-7.44-4.06-8.48,0A89.35,89.35,0,0,0,883.61,801c-.34,5.23-.5,10.68,1.74,15.53,3.59,7.83,12.85,12,21.08,12.14,3,.06,6.09-1,7.53-3.78a9.71,9.71,0,0,0,.2-7.61c-.86-2.43-2.13-4.71-3.15-7.08.08.18.25.59-.1-.25-.11-.28-.23-.57-.34-.86-.23-.58-.45-1.16-.66-1.75-.42-1.16-.81-2.34-1.14-3.53s-.62-2.37-.84-3.57c0-.14-.26-1.82-.18-1.09-.08-.68-.13-1.36-.16-2a26.14,26.14,0,0,1,.08-3.65c0-.15.15-1.1.05-.48s0-.2.07-.33a15.23,15.23,0,0,1,.44-1.64c.25-.79.06-.13,0,0,.12-.22.24-.43.35-.65.36-.67.09-.14,0,0,.07-.07.52-.51.51-.52.14.66-2.61-.06-2.79-.14.14.06.51.71,0,0,.17.24.34.49.5.75A19.65,19.65,0,0,1,908.1,793c.28.58-.22-.68,0-.06,0,.17.13.33.19.5q.3.84.54,1.71a31.93,31.93,0,0,1,.72,3.19c.11.6.21,1.21.3,1.82,0,.19.11.86,0-.06,0,.24.07.49.1.74.28,2.35.49,4.72.79,7.07.65,5,1.64,10,4.4,14.31a4.4,4.4,0,0,0,8-3.39,97.68,97.68,0,0,0-12.48-33.54,4.43,4.43,0,0,0-8.19,2.22c-.07,10.47,1.38,20.86,2.81,31.22l8.47-2.34a177.67,177.67,0,0,0-6.41-28.18,4.41,4.41,0,0,0-8.64,1.17l-.62,18.94,8.63-1.17q-1.25-8.46-3.21-16.79a4.38,4.38,0,0,0-3.65-3.15c-1.58-.21-3.69.52-4.38,2.1A44.57,44.57,0,0,0,892,800.79l8.64,1.17a91.07,91.07,0,0,1-.52-14.3,4.38,4.38,0,0,0-3.81-4.32c-2.31-.31-4,1.09-4.83,3.15-4.56,11.56-1.66,25.28,6.57,34.43a4.38,4.38,0,0,0,5.77.34c1.56-1.2,2.45-3.91,1.13-5.67a26.8,26.8,0,0,1-3.33-5.72l-6.9,5.32,3.09,3.37a4.43,4.43,0,0,0,6.22,0,4.54,4.54,0,0,0,0-6.22l-2.53-3.11-6.22,6.22,2.77,2.87a4.46,4.46,0,0,0,5.33.69,4.64,4.64,0,0,0,2-5l-.08-.43c0,.37.06.39,0,.08s0-.75,0-1.1.08-.62,0-.15c.08-.43.19-.85.31-1.28a4.4,4.4,0,1,0-8.48-2.34,16.11,16.11,0,0,0-.26,7.56l7.35-4.28-2.77-2.87a4.46,4.46,0,0,0-6.22,0,4.52,4.52,0,0,0,0,6.22l2.53,3.11,6.22-6.22L901,809a4.39,4.39,0,0,0-5.78-.35c-1.86,1.45-2,3.62-1.13,5.67a27.11,27.11,0,0,0,3.33,5.73l6.9-5.32c-.42-.47-.82-1-1.21-1.43.6.75-.15-.23-.21-.32s-.29-.41-.43-.61a29.5,29.5,0,0,1-1.94-3.42l-.39-.85c.26.57.08.2-.06-.16q-.35-.87-.63-1.77a31.31,31.31,0,0,1-.94-3.82c-.06-.31-.1-.62-.16-.93-.11-.68.1,1.07,0-.13-.06-.62-.11-1.24-.14-1.87a29.35,29.35,0,0,1,.08-3.75q0-.55.12-1.11c-.05.39-.08.53,0,.05.12-.67.25-1.35.41-2a28.71,28.71,0,0,1,1.2-3.75l-8.63-1.17a92.29,92.29,0,0,0,.51,14.3c.26,2.2,1.49,4,3.82,4.32,1.94.26,4.5-1,4.82-3.15a38.24,38.24,0,0,1,1.08-5.08q.33-1.2.75-2.37c.15-.43.31-.85.47-1.28a3.56,3.56,0,0,1,.26-.61l-8-1q2,8.32,3.22,16.79c.32,2.15,2.89,3.41,4.82,3.15a4.41,4.41,0,0,0,3.81-4.32l.62-18.94-8.63,1.17a177.45,177.45,0,0,1,6.42,28.18c.32,2.28,3.34,3.73,5.4,3.07,2.51-.82,3.41-3,3.07-5.41-.36-2.65-.57-4.16-.89-6.69s-.6-4.92-.85-7.38a138.18,138.18,0,0,1-.75-14.81l-8.19,2.21q2.18,3.65,4,7.47c.64,1.34,1.27,2.69,1.84,4.07-.18-.44,0,0,.08.18.14.35.28.69.41,1,.28.69.54,1.39.8,2.09a94.05,94.05,0,0,1,4.42,16.6l8-3.39a20.87,20.87,0,0,1-1.39-2.54c-.09-.2-.25-.77,0,.05-.08-.23-.17-.45-.25-.67-.17-.46-.31-.92-.45-1.38-.28-.93-.5-1.88-.69-2.84-.1-.48-.19-1-.27-1.45l-.12-.73c0-.12-.16-1.15-.08-.52s0-.2,0-.34l-.06-.56c-.06-.5-.12-1-.17-1.49-.12-1.06-.23-2.12-.34-3.17-.25-2.23-.52-4.47-1-6.68-.82-4.21-2.43-8.78-5.46-11.94-2.75-2.87-6.88-2.41-9.63.14a12.4,12.4,0,0,0-3.46,6.46,33.61,33.61,0,0,0,.88,15.81,58.35,58.35,0,0,0,2.48,7c.56,1.35,1.14,2.7,1.76,4,.22.5.45,1,.68,1.48.13.27.26.56.4.83.48,1-.28-.88.08.18.13.38.26.75.36,1.14.27,1.1,0-.61.07.46v.16c0,.41,0,.41,0,0l0-.29c-.11.37-.11.38,0,0a2.84,2.84,0,0,1,.44-.7,1.19,1.19,0,0,1,.59-.37c.3-.1.24-.09-.19,0,.08,0,1,0,0-.05h-.73l-1.2-.06-.69-.07c-.65-.06.77.14.13,0s-1-.18-1.53-.3a22.18,22.18,0,0,1-2.67-.8l-.49-.19c-.61-.21.66.33.09,0s-.94-.44-1.39-.69a21.37,21.37,0,0,1-2.31-1.46c.78.55-.18-.17-.41-.38s-.65-.61-.95-.93l-.45-.5c-.73-.79.48.74-.13-.15-.25-.37-.49-.73-.72-1.11s-.77-1.78-.42-.75c-.15-.42-.31-.84-.43-1.27-.07-.26-.13-.52-.19-.78,0,0-.2-1.39-.12-.61-.07-.68-.11-1.36-.13-2,0-1.4,0-2.81,0-4.22s.13-2.85.25-4.27q.09-1.07.21-2.13c0-.32.07-.63.11-1l.06-.47c0,.3,0,.3,0,0a87.06,87.06,0,0,1,1.73-8.62h-8.48q.11.45.18.93c0-.39,0-.31,0,.23s.09,1.1.11,1.65a35.12,35.12,0,0,1-.08,3.55c-.14,2.22-.43,4.44-.65,6.66a34.43,34.43,0,0,0,.54,11.76,17.89,17.89,0,0,0,6.83,10.27l1.24.88c.24.18.24.17,0,0a8.14,8.14,0,0,1,.63.54,16,16,0,0,1,1.16,1.17s.85,1.05.35.39a40.17,40.17,0,0,1,3.24,5.34c2.35,4.31,9.64,1.38,8-3.39a27.09,27.09,0,0,0-5.86-9.91l-5.33,6.9c.69.41,1.36.84,2,1.31-.7-.5.23.19.36.3.36.3.71.62,1,.94a22.75,22.75,0,0,1,1.65,1.75c.13.15.26.3.38.46-.24-.31-.26-.34-.08-.1s.54.77.79,1.16a4.4,4.4,0,0,0,7.59-4.44Z" transform="translate(-689.51 -745.31)"/><path class="cls-2" d="M873.92,838.19a246,246,0,0,0-39.47,4.7c-2.23.45-1.27,3.78.94,3.39l33-5.82c1.66-.29,1.7-3.14,0-3.39-10.5-1.56-20.83.81-31.26,1.77a191.15,191.15,0,0,1-31.47-.12c-6-.43-12-1-17.94-1.6v3.52a303.54,303.54,0,0,1,46.5,1.84V839l-56.65,1.52c-2.26.06-2.27,3.53,0,3.52l49.48-.41c2.31,0,2.21-3.29,0-3.52a458.39,458.39,0,0,0-51.6-2.45c-2.32,0-2.2,3.26,0,3.52A87.06,87.06,0,0,0,797,841a1.77,1.77,0,0,0,.47-3.45l-5.17-2-.47,3.45a47.65,47.65,0,0,1,9.77.48,1.76,1.76,0,0,0,.94-3.39l-5.61-2-.47,3.45,8.14.62a1.75,1.75,0,0,0,1.73-1.52,1.8,1.8,0,0,0-1.26-1.93l-5.84-2.37-.47,3.45a19.39,19.39,0,0,1,5.46.75l.47-3.46a4.76,4.76,0,0,1-3.09-1l-.78,2.94a3.62,3.62,0,0,1,1.7,0l.46-3.46-2.86-.32c-1.69-.19-2.45,2.59-.88,3.28a24.18,24.18,0,0,1,5.46,3.27l1.24-3a2.43,2.43,0,0,1-.47,0c.48,1.4.19,2.07-.88,2l-1-.81-.15-.59c.12,2.25,3.64,2.26,3.52,0a2.27,2.27,0,0,0-4.25-.92c-1.42,2.31,1.35,3.82,3.28,3.85,1.42,0,2.46-2,1.25-3a26.81,26.81,0,0,0-6.18-3.83l-.89,3.28,2.86.32c2,.22,2.38-3,.47-3.45a8.07,8.07,0,0,0-3.56,0,1.77,1.77,0,0,0-.78,2.94,8.59,8.59,0,0,0,5.58,2,1.77,1.77,0,0,0,.46-3.46,23.39,23.39,0,0,0-6.39-.86c-2.11,0-2.22,2.74-.47,3.45l5.84,2.37.47-3.46-8.14-.61c-2.08-.16-2.24,2.83-.47,3.45l5.61,2,.94-3.39a51.89,51.89,0,0,0-10.71-.6,1.77,1.77,0,0,0-.47,3.45l5.18,2,.46-3.45a87.54,87.54,0,0,1-21.58.18v3.52a456,456,0,0,1,51.6,2.45v-3.52l-49.48.41V844l56.65-1.53c2.32-.06,2.2-3.26,0-3.51a304.82,304.82,0,0,0-46.5-1.85,1.76,1.76,0,0,0,0,3.52c10.39,1,20.79,2,31.23,2.26,5.16.12,10.33,0,15.48-.33s10.39-1.15,15.58-1.78c5.77-.7,11.67-1.19,17.45-.33v-3.39l-33,5.82.94,3.39a239.93,239.93,0,0,1,38.53-4.57c2.26-.09,2.27-3.61,0-3.52Z" transform="translate(-689.51 -745.31)"/><path class="cls-2" d="M749.12,840a116.49,116.49,0,0,0,29.29,2c2.25-.14,2.27-3.65,0-3.52a112.41,112.41,0,0,1-28.36-1.84c-2.21-.43-3.15,3-.93,3.39Z" transform="translate(-689.51 -745.31)"/><path class="cls-2" d="M868.82,839.23a8.76,8.76,0,0,0,6.23,4.2c2.17.3,3.2-2.82.93-3.39-18.53-4.69-37.32,1.73-56,.39A44.72,44.72,0,0,1,805.15,837l-.42,3.21,4.58-1.54a1.78,1.78,0,0,0,.42-3.21,43.24,43.24,0,0,0-11-4.49l.42,3.21a27.4,27.4,0,0,1,6.18-2.82L804,828.12q-9.48,4.89-19.31,9l1.35,3.21,16.71-9.9c1.94-1.15.17-4.19-1.78-3l-16.7,9.9c-1.65,1-.54,4,1.35,3.21,6.84-2.86,13.57-6,20.15-9.38,1.77-.91.55-3.81-1.35-3.21a31.55,31.55,0,0,0-7,3.17,1.79,1.79,0,0,0,.42,3.22A39.84,39.84,0,0,1,808,838.47l.42-3.22-4.58,1.54c-1.28.43-1.92,2.56-.42,3.21,17.85,7.85,37.33,2,56,1.8a60.72,60.72,0,0,1,15.72,1.63L876,840a5.44,5.44,0,0,1-4.12-2.58c-1.18-1.93-4.22-.16-3,1.77Z" transform="translate(-689.51 -745.31)"/><path class="cls-2" d="M899.34,778.88c-3.85-1.74-8.06-.62-12.08-1.58-4.22-1-8.27-2.69-12.5-3.74a97.93,97.93,0,0,0-13.07-2.3c-3.41-.38-9.51-1-10,3.89-.2,2.22,1.68,3.8,2.74,5.54a20.85,20.85,0,0,1,2.5,6.17,1.78,1.78,0,0,0,3.21.42c.89-1.56.94-3.23,1.38-4.92.4-1.53,1.43-2.07,2.94-2.25a55.89,55.89,0,0,1,5.79-.11l6.94,0c2.31,0,2.21-3.3,0-3.52-4-.41-8.08-.85-12.13-1.23-3-.28-6,0-7.86,2.57h3l-.91-2a1.77,1.77,0,0,0-2.76-.35,8.63,8.63,0,0,0-2.34,5.59c-.12,2.28,3.31,2.22,3.51,0l.32-3.52c.18-2.07-2.85-2.24-3.46-.47a14.48,14.48,0,0,1-1.63,3.3l3.28.89a14.39,14.39,0,0,1,1.43-5.83c1-2-2.06-3.81-3-1.77a18.92,18.92,0,0,0-1.91,7.6c-.07,1.82,2.37,2.28,3.28.88a18.47,18.47,0,0,0,2-4.13l-3.45-.47-.31,3.52h3.51a4.88,4.88,0,0,1,1.31-3.11l-2.76-.35.92,2c.6,1.31,2.35,1,3,0,1.25-1.75,5.06-.81,6.77-.64l10.19,1v-3.52l-7.94.06a31.89,31.89,0,0,0-6.33.33,6,6,0,0,0-4.28,3.18c-.84,1.74-.58,3.84-1.54,5.51l3.22.42a24.55,24.55,0,0,0-2.43-6.29,21.48,21.48,0,0,0-1.86-2.79c-.48-.63-1.28-1.29-.45-2s2.25-.44,3.23-.37,2.2.19,3.3.32c2.52.28,5,.68,7.5,1.18a131,131,0,0,1,14,3.93,26,26,0,0,0,7.1,1.36c2.22.06,4.68-.33,6.77.62s3.84-2.11,1.77-3Z" transform="translate(-689.51 -745.31)"/><path class="cls-2" d="M747.58,840.74a5.86,5.86,0,0,1,1.23-.32l-.46.07a4.86,4.86,0,0,1,1.32,0l-.46-.06.3.05a1.39,1.39,0,0,0,.7,0,1.28,1.28,0,0,0,.65-.21,1.77,1.77,0,0,0,.81-1,1.79,1.79,0,0,0-.18-1.36,1.71,1.71,0,0,0-1-.81,6.93,6.93,0,0,0-3.8.27,1.36,1.36,0,0,0-.59.32,1.27,1.27,0,0,0-.46.49,1.78,1.78,0,0,0,.63,2.41,1.72,1.72,0,0,0,1.36.17Z" transform="translate(-689.51 -745.31)"/><path class="cls-2" d="M789.1,777.91a1.76,1.76,0,0,0,0-3.51,1.76,1.76,0,0,0,0,3.51Z" transform="translate(-689.51 -745.31)"/><path class="cls-2" d="M771.49,782.56q-.51,19-1.65,38.05c-.13,2.26,3.38,2.25,3.52,0q1.14-19,1.65-38.05c.06-2.26-3.46-2.26-3.52,0Z" transform="translate(-689.51 -745.31)"/><path class="cls-2" d="M856.28,792.8c.23,3.19,1.19,7.18.76,10.32l2.42-3.15q4.53,1.44,2.61-.63a11.12,11.12,0,0,1-1.3-2.18,17.63,17.63,0,0,1-1.23-4.9c-.89-6.15-10.06-4.22-10.36,1.4-.19,3.58-9.85,2.41-12.1,2.66a37.94,37.94,0,0,0-10.76,3.16c-4.49,1.91-8.75,3.78-13.66,4.26-4.34.42-8.71.25-13,.58a40.16,40.16,0,0,0-12.22,2.53c-2.45,1-8,5.1-9.73,2.34-1.48-2.39,1.47-7.8,2.08-10.1,1-3.94,1.43-7.87-.13-11.71-2.28-5.59-9.66-4.66-10.36,1.4a177.17,177.17,0,0,0-.73,33.13c.34,4.66,7.52,7.89,9.83,2.66,4.65-10.5,4.12-22.57,9.24-32.81l-9.83-2.66a141.65,141.65,0,0,1,.72,22.18c-.26,5.88,9.1,7.24,10.36,1.4,1.2-5.53,2.41-11,5.13-16l-6,2.43A127.24,127.24,0,0,0,817.83,802c9.89-.26,19.6-2.5,29.48-2.61V788.85a232,232,0,0,0-61.84,15.31l6,7.75a28.32,28.32,0,0,1,6-8.81c4.82-4.79-2.64-12.25-7.46-7.46a36.56,36.56,0,0,0-7.68,11c-1.64,3.63,1.2,9.66,6,7.75a221.84,221.84,0,0,1,59-14.94c6.59-.72,7-10.63,0-10.55-9.25.1-18.33,2.16-27.57,2.55a115.1,115.1,0,0,1-28.92-2.49,5.42,5.42,0,0,0-6,2.42c-3.17,5.84-4.79,12.09-6.19,18.54L789,811.28a141.65,141.65,0,0,0-.72-22.18c-.52-4.67-7.24-7.84-9.83-2.66-5.21,10.41-4.58,22.3-9.24,32.81l9.83,2.66a177.17,177.17,0,0,1,.73-33.13l-10.37,1.41c2,4.9-1.66,10.2-2.26,15.16-.54,4.43.25,9.27,3.64,12.47,3.68,3.48,8.9,3.53,13.43,1.94,6-2.1,10.56-4.66,17.09-5,5.69-.29,11.39-.15,17-1.26,5.95-1.16,11-4.55,16.83-6.13,5.45-1.48,11.27,0,16.55-2.35a12.74,12.74,0,0,0,8-11.36l-10.36,1.4c.83,5.74,4.59,15.13,11.64,15.2,9.06.09,6.22-12,5.82-17.46-.49-6.73-11-6.78-10.55,0Z" transform="translate(-689.51 -745.31)"/><path class="cls-2" d="M899.78,814.72c-1.17.36-5.1,1.93-6.31.89s-.72-6.05-.78-7.43c-.2-4.3-.15-8.82-1.57-12.93-3-8.78-13-11.87-20.1-5.55-3.45,3-5,7.3-5.61,11.77-.33,2.47-.42,4.94-.53,7.43-.09,2.14.65,7.77-.41,9.48.18-.29.38-.19-.77.31s-3.29.49-4.67.6a58.9,58.9,0,0,1-7.86.07,56.61,56.61,0,0,1-17.29-4c-6.34-2.45-9.08,7.74-2.81,10.17a64.78,64.78,0,0,0,32.84,3.73c4.52-.65,9-2.06,10.56-6.89,1.64-5.21.74-11.59,1.12-17,.16-2.39.25-5.29,1.87-7.2,2-2.36,3.14-1.24,3.87,1.08,1.48,4.68.64,10.16,1.1,15,1.09,11.29,10.61,13.54,20.16,10.62,6.47-2,3.71-12.16-2.81-10.17Z" transform="translate(-689.51 -745.31)"/><path class="cls-2" d="M831.33,814.89c-5.7,2.17-10.74,6.17-12.72,12.16a10.1,10.1,0,0,0,.44,8.08,8.92,8.92,0,0,0,2.37,3c4.09,2.8,4.19-4.57,4.26-7.11.09-2.93.76-5.12-1.71-7.34-1.92-1.71-4.58-1.88-7-1.32a13.05,13.05,0,0,0-6.65,3.94,12.28,12.28,0,0,0-2.06,3.3,10.18,10.18,0,0,0-.79,2.14c1.95-1.1,2.1-2,.44-2.57-5.61-3.85-10.89,5.28-5.32,9.11,3.21,2.21,7.08,3.28,10.74,1.44A8.21,8.21,0,0,0,817,836a9.71,9.71,0,0,0,.74-1.87c.48-1.88,2.18-.33-.8-2.66l-1.55-3.73c0,4.71-.68,9.21,2.42,13.26,2.55,3.34,7.1,4.8,10.9,2.57a7.47,7.47,0,0,0,3-9.74c-.68-1.34-3-2.56-2.9-4,.08-2,3.71-4.16,5.29-4.76,6.28-2.39,3.56-12.6-2.8-10.17Z" transform="translate(-689.51 -745.31)"/><path class="cls-2" d="M833.79,821.52A16.62,16.62,0,0,0,824.2,831c-2,5.48,1.23,10.27,6.56,11.85,6.52,1.94,9.3-8.24,2.8-10.17-1.44-.43.25.44-.1.12s.53.76.6,1.21c.16,1-.36,1.08.16.19-.48.82,0,.06.25-.32.68-1.19-.63.61.3-.45a13.59,13.59,0,0,1,1-1c.28-.27,1.12-.81.35-.33.29-.18,1.88-.94.49-.39,2.65-1.05,4.49-3.53,3.68-6.49-.69-2.52-3.82-4.74-6.49-3.68Z" transform="translate(-689.51 -745.31)"/><path class="cls-2" d="M867.51,757.47c-27.38-5.14-55.24-2.2-82.82-.88q-5.82.28-11.65.43c-1.8.05-3.62.14-5.43.07-1.1,0-2.47-.13-3-1.21l-.63,2.41c3.68-1.84,8.35-1.22,12.32-1.19l14.21.11,28.15.22a1.76,1.76,0,0,0,0-3.52l-29.15-.22L775,753.58c-4.35,0-8.85-.33-12.85,1.67a1.78,1.78,0,0,0-.63,2.41c1.28,2.4,4.07,2.94,6.57,3,3.5,0,7-.12,10.51-.25,7.13-.27,14.25-.69,21.37-1.1,14.19-.83,28.41-1.63,42.62-1a166.12,166.12,0,0,1,24,2.62c2.21.42,3.16-3,.94-3.39Z" transform="translate(-689.51 -745.31)"/><path class="cls-2" d="M730.9,776.88a2.74,2.74,0,0,1,1.61.77,4.48,4.48,0,0,0-4.8-.91,4.36,4.36,0,0,0-2.7,4,73.06,73.06,0,0,1-1.35,19.6c-.15.71-.3,1.42-.51,2.12-.08.27-.31.89,0,.32-.05.1-.72,1.21-.15.45a7.79,7.79,0,0,1-1.25,1.18c.81-.68-.1.05-.22.14l-.71.52a12.67,12.67,0,0,0-3.57,3.65,9.62,9.62,0,0,0-1,6.63c.34,2.28,3.33,3.74,5.4,3.07,2.49-.81,3.44-3,3.07-5.41.06.41.09.45.08.13s0-.28,0,.13l.12-.4-.08.28c.74-.84-.7.57.14-.18l.63-.57c.37-.36-.6.42.07,0l.71-.52a25.51,25.51,0,0,0,2.11-1.65c2.56-2.32,3.34-5.66,4-8.92a83.05,83.05,0,0,0,1.38-20.52l-7.5,3.11a6.69,6.69,0,0,0,4.6,1.81,4.4,4.4,0,1,0,0-8.79Z" transform="translate(-689.51 -745.31)"/><path class="cls-2" d="M773.9,784.12q-3.61,19.64-5.33,39.57a4.41,4.41,0,0,0,4.4,4.39,4.5,4.5,0,0,0,4.39-4.39c1.11-12.88,2.67-24.51,5-37.23.41-2.26-.62-4.85-3.07-5.41-2.16-.49-5,.65-5.41,3.07Z" transform="translate(-689.51 -745.31)"/><path class="cls-2" d="M715.35,813.22a7,7,0,0,0-.37,4.61,5.84,5.84,0,0,0,4,4,5.35,5.35,0,0,0,5.88-2.42,5.17,5.17,0,0,0,.76-2.7,5.62,5.62,0,0,0-1.47-3.55,4,4,0,0,0-2.53-1.21,4.17,4.17,0,0,0-2.8.52c-1.54,1-2.71,3.11-2,5a9.84,9.84,0,0,1,.48,1.79l-.16-1.17a9.48,9.48,0,0,1,0,2.38l.15-1.17c-.25,1.6-.8,3-.33,4.68a5.16,5.16,0,0,0,6.27,3.53,4.27,4.27,0,0,0,2.29-1.57,4.08,4.08,0,0,0,.94-2.66c-.25-2-.41-4-.76-5.89a5.65,5.65,0,0,0-1.58-3,6.39,6.39,0,0,0-4.33-1.57l1.16.15c-.47-.08-.3,0,.5.3.68.58.87.72.57.43.52.72.67.9.46.53.33.84.42,1,.27.64s-.21-.75-.34-1.12a5.88,5.88,0,0,0-4-4.18,4.35,4.35,0,0,0-3.83.78,4.62,4.62,0,0,0-1.73,3.45,13.66,13.66,0,0,0,2.53,9.48,15.09,15.09,0,0,0,4.17,4c.55.34,1.14.6,1.7.93l.36.22c.43.25-.77-.76-.33-.25s-.28-.41-.31-.45c.4.59-.32-1-.15-.33l-.15-1.17a3.77,3.77,0,0,1,0,1l.15-1.17a21.18,21.18,0,0,0-.31,2.36,6.52,6.52,0,0,0,.8,3.09,4.41,4.41,0,0,0,6,1.58,4.51,4.51,0,0,0,1.58-6c.25.72.34.85.25.41l.16,1.17a5.47,5.47,0,0,1,0-.7l-.15,1.17a11.61,11.61,0,0,0,.2-3.42,6.24,6.24,0,0,0-1.81-3.62,25.64,25.64,0,0,0-3.86-2.53s-.35-.26-.36-.25.82.71.37.26c-.24-.23-.5-.45-.72-.69s-.79-1.19-.1-.06c-.15-.25-.34-.49-.49-.74a7.63,7.63,0,0,1-.48-.89c-.07-.14-.3-.67,0,0s0,.07,0-.11a10.63,10.63,0,0,1-.45-2l.16,1.17a10,10,0,0,1,0-2.45L716,818c.52.13-.73-.32-.69-.29a4.69,4.69,0,0,1-1.19-1.15c.19.33-.35-1-.27-.66a2.46,2.46,0,0,0,.09.29,18.74,18.74,0,0,0,.62,1.78,6,6,0,0,0,2.29,2.77,7.62,7.62,0,0,0,3.56.87l-1.17-.16a2.39,2.39,0,0,1-1.23-.89,2.05,2.05,0,0,1-.9-1.26,2.36,2.36,0,0,0,.11.59l-.16-1.16.57,4.52,3.23-4.24-.19,0H723l2.36,2.46.16,1.17a1.29,1.29,0,0,1,0-.48l-.16,1.17a22.78,22.78,0,0,0,.63-4.12,12.24,12.24,0,0,0-.72-4.15l-7.35,4.28.11.13-1.13-1.94.06.15-.16-1.17a.58.58,0,0,1,0,.32l.16-1.17a3.42,3.42,0,0,1,2.37-2.34l1.17-.16a.73.73,0,0,1-.36,0l1.17.16,1.44.86a2.23,2.23,0,0,1,.57.94c.28.72.08.15,0,0l.16,1.17a2.1,2.1,0,0,1,0-.56l-.16,1.17a6.67,6.67,0,0,1,.43-1.33,4.38,4.38,0,0,0-.44-3.39,4.48,4.48,0,0,0-2.63-2,4.43,4.43,0,0,0-3.38.44,5.14,5.14,0,0,0-2,2.63Z" transform="translate(-689.51 -745.31)"/><path class="cls-2" d="M770.24,827.68q-22.22-2.45-44.57-3a4.42,4.42,0,0,0-4.39,4.4,4.48,4.48,0,0,0,4.39,4.39q22.33.57,44.57,3c2.3.25,4.5-2.2,4.4-4.4a4.53,4.53,0,0,0-4.4-4.39Z" transform="translate(-689.51 -745.31)"/><path class="cls-2" d="M756.23,834.23a68.73,68.73,0,0,1-8.49-.35c-.72-.07-1.44-.15-2.17-.25l-.27,0-1.21-.18c-1.44-.23-2.88-.48-4.31-.76-2.73-.53-5.46-1.08-8.15-1.76-.25-.07-.51-.13-.76-.21s-1.1-.36-.58-.16-.26-.14-.34-.19-.65-.51-.35-.2-.3-.45.2.19c-.29-.38-.09-.25,0,.1-.24-.65,0,.08,0,.44a2.06,2.06,0,0,1-.56,1.07l-5.33.69c14.76,6.49,31.12,7.1,47,8.54,2.29.21,4.49-2.17,4.39-4.39a4.51,4.51,0,0,0-4.39-4.4l-11.47-1c-1.82-.17-3.63-.34-5.45-.53l-2.73-.3-1.36-.17-.91-.11-.32,0-.32-.05-.68-.09-1.35-.21-2.7-.45c-1.79-.33-3.57-.7-5.33-1.13s-3.51-.92-5.23-1.48c-.86-.28-1.72-.58-2.57-.9l-1.26-.49-.64-.26c.36.15.29.12-.2-.09-1.68-.74-4-.9-5.32.68a7.49,7.49,0,0,0-1.8,6.39,8,8,0,0,0,2.58,4.6c2.8,2.47,6.75,3,10.28,3.74A95.39,95.39,0,0,0,756.23,843a4.4,4.4,0,0,0,0-8.79Z" transform="translate(-689.51 -745.31)"/><path class="cls-2" d="M768.82,824.62c-7.49-1-15.05-1.65-22.58-2.39L724,820.05c-2.29-.23-4.49,2.18-4.39,4.39a4.52,4.52,0,0,0,4.39,4.4l21.7,2.13L756.59,832l5.1.5,2.63.29,1.43.17c.86.1-.2,0,.74.09,2.26.32,4.83-.54,5.4-3.07.47-2.07-.63-5.06-3.07-5.4Z" transform="translate(-689.51 -745.31)"/><path class="cls-2" d="M719.92,836v.22a.89.89,0,0,0,1.73.24c1.37-3.9,1.58-9-2.35-11.52-1.68-1.06-3.67-1.44-5.5-2.13s-3.38-2-3.34-4.1c0-2.85,2.44-4.79,4.71-6.09l-1.07-1.38a7.05,7.05,0,0,0-2.24,5.33,6.86,6.86,0,0,0,.67,2.81c.45.93,1.34,1.8,1.4,2.87l1.5-.62a5.13,5.13,0,0,1-1.62-3.18c-.07-.76-1.24-1.33-1.64-.45a.75.75,0,0,1-.38.47l.85.22a1.55,1.55,0,0,1-.28-1.57l-1.7-.46a6.9,6.9,0,0,0,1.62,6.59c.58.61,1.79,0,1.47-.86a10,10,0,0,0-2.12-3.38.88.88,0,0,0-1.38,1.07c1.92,3.48,5.64,5.13,8.71,7.39a10.69,10.69,0,0,1,3.61,4.06c.44,1,.87,3.21-.59,3.62l1.11.85a1.61,1.61,0,0,1,.62-1c.85-.75-.4-2-1.25-1.25a3.47,3.47,0,0,0-1.13,2.24.89.89,0,0,0,1.12.85,3.38,3.38,0,0,0,2.28-3.18,6.74,6.74,0,0,0-1.38-4.31c-1.94-2.77-5-4.32-7.7-6.2a12.16,12.16,0,0,1-3.88-4l-1.38,1.07a7.83,7.83,0,0,1,1.67,2.6l1.47-.86a5.07,5.07,0,0,1-1.17-4.88.88.88,0,0,0-1.7-.46,3.35,3.35,0,0,0,.74,3.28.84.84,0,0,0,.85.22,2.42,2.42,0,0,0,1.44-1.27l-1.64-.44a7,7,0,0,0,2.14,4.43.89.89,0,0,0,1.5-.63c-.12-1.95-1.79-3.24-2-5.16a5.31,5.31,0,0,1,1.7-4.6c.75-.68-.21-1.87-1.07-1.38a10.91,10.91,0,0,0-5.16,5.35,5.87,5.87,0,0,0,1.36,6.43c2.86,2.57,8.34,1.9,9.89,5.94.88,2.29.37,4.92-.42,7.16l1.73.23V836a.88.88,0,0,0-1.76,0Z" transform="translate(-689.51 -745.31)"/><path class="cls-2" d="M920.32,775q2.17,12.91,4.34,25.85a42.42,42.42,0,0,0,1.24,5.58,30.16,30.16,0,0,0,2.48,5.27c.88,1.64-.72,3.28-1.41,4.77a8,8,0,0,0-.64,5.26c.48,2.12,1.82,3.92,2.34,6a2.66,2.66,0,0,1-.25,2.35c-.36.44-.86.73-1.36.41-1.91-1.22-3.68,1.82-1.77,3a4.3,4.3,0,0,0,4.8-.27,5.43,5.43,0,0,0,2.22-4.95c-.18-2.31-1.42-4.2-2.22-6.31a5.08,5.08,0,0,1-.41-2.74,9.53,9.53,0,0,1,1.25-2.78c1.09-2,1.78-3.86.76-6-.45-1-1.08-1.81-1.55-2.76a18.29,18.29,0,0,1-1.1-3.06c-1.26-4.58-1.77-9.42-2.56-14.11l-2.76-16.48c-.38-2.23-3.77-1.28-3.4.94Z" transform="translate(-689.51 -745.31)"/><path class="cls-2" d="M923.54,826.29q-9.42,1.8-18.88,3.29c-3.08.48-6.15.94-9.24,1.38l-2.43.33-.49.07c.28,0,.26,0,0,0l-1.21.16-4.88.62,1.17,8.63c7.24-1.94,14.49-3.86,21.72-5.81,5.67-1.52,12-3.84,14.76-9.52a4.46,4.46,0,0,0-5-6.46l-6.48,1.11,5.41,5.41a4.77,4.77,0,0,1,.16-.75c-.2.4-.22.46-.07.18a3,3,0,0,1,.29-.49c-.3.39-.28.4.07,0l-5.33.68c.14.07.86.58.42.19s.41.8-.22-.24c.27.45.06.2,0-.12.27,1,0-.9,0,.17a4.4,4.4,0,0,0,8.63,1.17,2.88,2.88,0,0,1-2.63,2c.87,0-.88-.3-.08,0,.45.14.37.09-.25-.15.4.24.34.16-.2-.24.32.14.64.59.89.83,1.84,1.77,3.73,3,6.36,3.15,3.43.14,5.34-3.81,3.8-6.62-.34-.61-.66-1.23-.94-1.87.34.77-.16-.45-.18-.5q-.18-.5-.33-1c-.2-.67-.37-1.35-.52-2-.07-.34-.12-.69-.19-1,.18.89,0-.4,0-.49a25.36,25.36,0,0,1,0-4.18c.11-1.33-.18.81.07-.49.07-.34.13-.69.21-1s.4-1.14-.08-.13l.17-.27c-.64,1.13-1.78,1.55-3.43,1.25l-1.94-1.13.19.18v-6.22L912,819.84l6.9,5.33a59.74,59.74,0,0,0,2.76-45.1c-.88-2.51-4-4.31-6.46-2.63l-3.31,2.22,5.33,6.9a3.35,3.35,0,0,1-3.6.65c-.48-.38-.54-.39-.18,0-.34-.44-.37-.45-.1,0s.22.4,0-.14c.42,1.23.8,2.48,1.2,3.72l2.33,7.21c.7,2.16,1.54,4.32,2,6.54.06.28.16,1.71.13.56,0,.29.18,1.1,0,1.35.1-.63.1-.7,0-.22s-.12.4.1-.19c-.25.41-.2.36.16-.13a3.35,3.35,0,0,1-.49.43c-1.79,1.46-1.62,4.72,0,6.22a4.54,4.54,0,0,0,6.22,0c5.66-4.6,1.46-13.32-.3-18.76-1.11-3.43-2-7.14-3.49-10.42a8.39,8.39,0,0,0-3.43-3.83,5.83,5.83,0,0,0-6.8.88c-1.69,1.37-1.56,4.19-.34,5.77a4.37,4.37,0,0,0,5.67,1.13l3.31-2.22-6.46-2.62a55.86,55.86,0,0,1,2.46,10c.16,1,0-.43.06.53,0,.42.1.85.14,1.28.07.85.13,1.71.17,2.56.08,1.79.07,3.57,0,5.36,0,.85-.11,1.71-.19,2.56,0,.43-.1.86-.14,1.28s0,.29,0-.1c0,.21-.06.42-.1.63a50.49,50.49,0,0,1-1,5c-.41,1.67-.91,3.31-1.48,4.92-.29.81-.59,1.61-.92,2.41-.11.28-.1.26,0-.07-.08.2-.17.4-.26.59-.2.46-.42.91-.63,1.36a4.45,4.45,0,0,0,1.13,5.67c1.57,1.22,4.4,1.37,5.77-.34L929,812.6c1.42-1.78,1.92-4.49,0-6.22-3-2.66-6.88-1.5-8.8,1.76-1.24,2.11-1.41,5.15-1.49,7.54a27.47,27.47,0,0,0,3.48,14.07l3.79-6.61c.57.11.69.13.37,0s-.21-.06.08,0c.42.35-.35-.39.31.18-.45-.38-.86-.8-1.28-1.2a9.17,9.17,0,0,0-3.81-2.3c-3.45-1-7.17.5-8.24,4.1l8.64,1.17a8.36,8.36,0,0,0-4.54-7.59,4.6,4.6,0,0,0-5.33.69,9.2,9.2,0,0,0-2.71,4.9,4.47,4.47,0,0,0,5.41,5.4l6.47-1.1-5-6.46c-.15.31-.3.62-.48.92-.07.11-.62.89-.24.39s-.29.31-.31.33c-.2.2-.4.4-.62.59s-.51.37,0,.06c-.29.19-.56.39-.86.57a15.47,15.47,0,0,1-1.55.84c-.1,0-1,.46-.45.22s-.37.14-.48.18c-.62.24-1.25.45-1.89.65-1.33.41-2.68.76-4,1.12l-20.28,5.42a4.4,4.4,0,0,0-3.15,4.82c.27,2,2.15,4.08,4.32,3.82q19.86-2.45,39.51-6.17a4.42,4.42,0,0,0,3.07-5.41,4.5,4.5,0,0,0-5.4-3.07Z" transform="translate(-689.51 -745.31)"/><path class="cls-2" d="M919.67,814.77a7.09,7.09,0,0,0,.46,1.1l0,0s.66.86.69.89v0h0s.86.67.9.69l0,0a4.51,4.51,0,0,0,2.3.62h0a8.31,8.31,0,0,0,1.22-.16h0c.38-.12.75-.31,1.1-.46l.09-.06.45-.35.46-.35h0l0,0a7.89,7.89,0,0,0,.71-.93l0,0h0l.45-1a.43.43,0,0,0,0-.05s.16-1.13.16-1.17v-.05a10,10,0,0,0-.16-1.19v0l-.45-1.05h0l0,0a3.26,3.26,0,0,0-1.13-1.23,3.31,3.31,0,0,0-1.49-.79,3.4,3.4,0,0,0-1.76-.07,3.23,3.23,0,0,0-1.63.52l-.89.69a4.39,4.39,0,0,0-1.13,1.93l-.16,1.17a4.5,4.5,0,0,0,.6,2.22l0,0-.44-1.05,0,.05-.16-1.17v.06l.16-1.17s0,0,0,.06l.44-1.05a.21.21,0,0,1,0,.06l.69-.89a.23.23,0,0,1-.07.07l.89-.68-.11.06,1-.44-.11,0,1.17-.16h-.1l1.17.16-.06,0,1,.44,0,0,.89.68,0,0,.69.89,0-.05.44,1.05v0a4.93,4.93,0,0,0-2-2.63,4.95,4.95,0,0,0-3.39-.44l-1,.44a4.43,4.43,0,0,0-1.58,1.58l-.44,1.05a4.39,4.39,0,0,0,0,2.33Z" transform="translate(-689.51 -745.31)"/><path class="cls-2" d="M795.39,823.64c-3.24.56-6.44,1.25-9.62,2.09l5.13,8.82c2-2.2.45-6.31-2.49-6.06-1.21.1-3,1.13-4.19,1.46-1.31.39-6.15,1.93-6.53,1.73l2.42,3.16c.61,2.23,2.7-1.14,3.57-1.94,1.44-1.32,3-2.55,4.49-3.76,4.22-3.29-.37-10.36-5.13-8.81a101.11,101.11,0,0,0-10.48,4.1l5.33,9.11a77.37,77.37,0,0,1,21.61-8.37l-5.13-8.81a12.08,12.08,0,0,1-3.92,2.5l5.33,9.11a23.28,23.28,0,0,1,13.58-2l-3.15-7.75a8.69,8.69,0,0,1-8.41,3.67l2.33,8.82a22.15,22.15,0,0,1,15.59-6.86l-5.09-6.68c-1.24,3.92-4.58,5.84-8.57,5.67l4.56,7.93c3.32-4.48,8.1-6.89,13.51-7.81L815,814.17c-2.09,2.67-4.91,4.68-8.51,4.2l2.33,8.81a15.15,15.15,0,0,1,5.31-4c.63-.27,2.42-.45,2.85-.87.89.05,1-.17.28-.64-.52-.89-1-.67-1.61.65-4.24,4.22,1.18,11.32,6.39,8.28a47.4,47.4,0,0,1,15.26-5.65l-4.06-9.64a97.52,97.52,0,0,1-28.45,12l4.07,9.64a68.11,68.11,0,0,1,18-6l-2.8-10.17-16.87,6.53c-5.69,2.21-4.58,9.67,1.4,10.36l9.88,1.16,4,.46c.92.1,1.84.21,2.75.33q4.09.91.38-6.52v9.11c11.9-5.51,25.37-4.84,38.15-4.59s25.68.18,37.68-4.57l-4.06-9.64a31.89,31.89,0,0,1-24.23,4.9l-2.8,10.17,6.6,1.25V829.51c-1.57.28-2.08-.68-.42,1.75,1.54,2.24,1.49,1.44,3.86.38,2.76-1.23,5.53-2.43,8.3-3.64,5.18-2.27,2-9.56-2.66-9.83a66.39,66.39,0,0,0-15.73,1.07c-6.75,1.23-3.77,11.14,2.81,10.17a74.25,74.25,0,0,1,15.84-.48l-2.66-9.82a7.86,7.86,0,0,1-7.08.71l2.61,4.56a7.76,7.76,0,0,1,2.52-5.35c3.49-3.53,0-10.72-5.13-8.82L869.08,814l5.13,8.81a54.17,54.17,0,0,1,11.6-9.46l-7.75-5.95a18.29,18.29,0,0,1-4.47,7.39l9,3.73a17.21,17.21,0,0,1,2.74-11.32h-9.11a3.85,3.85,0,0,1-.08,3.79l6.49-3.68c1.1.39.42-6.12.62-6.87,1.71-6.58-8.46-9.38-10.17-2.81a16.35,16.35,0,0,0,0,8.67l.53-4.06c-3.07,6.33-.41,12.86,6.21,15.24,2.79,1,5.65-1.15,6.49-3.68,1.41-4.24.87-7.94-1-11.92-1.75-3.78-7.17-3.07-9.11,0A26.84,26.84,0,0,0,872,818.48c.34,4.35,5.63,7.22,9,3.73a30.2,30.2,0,0,0,7.18-12.05c1.42-4.4-3.9-8.28-7.75-5.95a64.1,64.1,0,0,0-13.73,11.1c-3.33,3.58-.1,10.76,5.13,8.82l10.1-3.74-5.13-8.82a19,19,0,0,0-5.6,12.81,5.09,5.09,0,0,0,2.61,4.55c6,2.57,11.94,2.58,17.72-.72,4.79-2.72,2.35-9.48-2.66-9.82a86.23,86.23,0,0,0-18.65.85l2.81,10.17a54.28,54.28,0,0,1,12.92-.69l-2.66-9.83c-5.78,2.53-16.33,5-16.76,12.88-.4,7.41,7.51,8.94,13.15,7.91,5-.93,5-9.22,0-10.17l-6.61-1.25c-6.61-1.26-9.48,8.81-2.8,10.17a42.75,42.75,0,0,0,32.35-6c4.7-3.07,1.79-12-4.06-9.64-25.19,10-53.31-1.38-78.35,10.22-3.52,1.63-3.37,7.43,0,9.11s7.14,2.89,10.54.74a7.55,7.55,0,0,0,3-9.39c-1.58-3.43-5-4.06-8.42-4.47-5.59-.69-11.2-1.31-16.8-2l1.4,10.36,16.87-6.54a5.28,5.28,0,0,0-2.8-10.17,77.9,77.9,0,0,0-20.55,7.06c-5.48,2.76-1.59,11,4.07,9.64a107,107,0,0,0,31-13c5.24-3.25,1.72-10.75-4.06-9.64a56.09,56.09,0,0,0-17.78,6.71l6.39,8.29c5-5,7.76-14.86-1.21-17.75-7.19-2.31-15.87,2.57-20.54,7.7-2.35,2.59-1.89,8.25,2.33,8.82,7.22,1,14.14-1,18.77-6.91,3.29-4.21.29-9.74-5.14-8.82-8.26,1.41-14.87,6-19.81,12.66-2.54,3.42,1,7.77,4.55,7.93A18.71,18.71,0,0,0,820.8,820a5.31,5.31,0,0,0-5.08-6.68,33.21,33.21,0,0,0-23.05,9.95c-2.55,2.58-1.73,8.16,2.33,8.81,8.25,1.33,15.52-1.64,20.32-8.51,1.81-2.59.08-7.24-3.15-7.75a35.91,35.91,0,0,0-21.72,3c-6.19,2.91-.79,11.81,5.33,9.11a20.76,20.76,0,0,0,6.05-4.15c4-3.79-.19-9.94-5.13-8.82a87,87,0,0,0-24.14,9.43c-6,3.44-.73,11.86,5.33,9.11a75.64,75.64,0,0,1,8-3l-5.13-8.81c-4.3,3.35-13.14,9.39-10.77,15.95,2.66,7.37,13.41,3.74,18.71,2s13.75-5.35,10.07-12.66c-3.39-6.71-11.3-4.18-15.28.14-3.52,3.82-.09,10.19,5.13,8.81,3.19-.84,6.38-1.53,9.63-2.09,6.67-1.14,3.84-11.3-2.81-10.17Z" transform="translate(-689.51 -745.31)"/><path class="cls-2" d="M775,810.64c-3,3-6.77,4.65-9.06,8.51A18.39,18.39,0,0,0,764,832.32c1.32,6.65,11.49,3.83,10.18-2.81-1.18-5.93,4.87-8,8.29-11.41,4.8-4.81-2.66-12.27-7.46-7.46Z" transform="translate(-689.51 -745.31)"/><path class="cls-2" d="M711.35,815.54h0l.09-.21a.05.05,0,0,1,0,0l.14-.18,0,0,.18-.14-.05,0,.21-.09h-.05l.23,0h0l.24,0h0a.7.7,0,0,0-.35,0,.64.64,0,0,0-.33.1.78.78,0,0,0-.25.23.61.61,0,0,0-.15.3l0,.23a.83.83,0,0,0,.12.44l.13.18a.86.86,0,0,0,.39.23h0l.25,0h0l.25,0h0a1.09,1.09,0,0,0,.25-.1l0,0a1.39,1.39,0,0,0,.19-.15h0a1.66,1.66,0,0,0,.16-.21v0A2,2,0,0,0,713,816a.7.7,0,0,0,0-.35.65.65,0,0,0-.11-.33.67.67,0,0,0-.22-.25.61.61,0,0,0-.3-.15l-.23,0a.89.89,0,0,0-.45.12l-.18.14a.84.84,0,0,0-.22.39Z" transform="translate(-689.51 -745.31)"/><path class="cls-2" d="M724.12,804.36c-.72-.65-1.5-.28-2.27,0s-1.69.73-2.51,1.16a18.62,18.62,0,0,0-4.36,3.11,11.21,11.21,0,0,0-3.48,9.49.88.88,0,0,0,1.08.61.9.9,0,0,0,.61-1.08,9.36,9.36,0,0,1,2.81-7.55,15.65,15.65,0,0,1,3.4-2.6c.64-.37,1.29-.71,2-1l1-.42c.19-.09.39-.17.58-.24l.2-.08c.26,0,.18-.11-.23-.18.84.77,2.08-.47,1.25-1.24Z" transform="translate(-689.51 -745.31)"/><path class="cls-2" d="M730.91,808.18a9.78,9.78,0,0,0-6.14,6.7c-.92,3.72.45,7.51,2.27,10.73.55,1,2.07.1,1.51-.89-1.53-2.72-2.84-6-2.13-9.16a8,8,0,0,1,5-5.68c1-.38.6-2.08-.47-1.7Z" transform="translate(-689.51 -745.31)"/><path class="cls-2" d="M728.68,775.45a6.77,6.77,0,0,0-3.27-2,1.57,1.57,0,0,0-1.77.57,4.5,4.5,0,0,0-.55,1.79,27.51,27.51,0,0,0,.35,8.68.88.88,0,0,0,1.08.61.9.9,0,0,0,.62-1.08,29.81,29.81,0,0,1-.48-6.67,11.26,11.26,0,0,1,.21-1.53,2.85,2.85,0,0,0,.18-.74c0-.25.05.08,0,0l-.11.1.16,0c.38.21.82.31,1.2.54a5,5,0,0,1,1.13.93c.78.83,2-.42,1.25-1.24Z" transform="translate(-689.51 -745.31)"/><path class="cls-2" d="M768.16,757.93a80.37,80.37,0,0,0,8.73-1.35.87.87,0,0,0,.61-1.08.89.89,0,0,0-1.08-.61,74.23,74.23,0,0,1-8.26,1.28.91.91,0,0,0-.88.88.89.89,0,0,0,.88.88Z" transform="translate(-689.51 -745.31)"/><path class="cls-2" d="M788.46,778.06a1.76,1.76,0,0,0,0-3.51,1.76,1.76,0,0,0,0,3.51Z" transform="translate(-689.51 -745.31)"/><path class="cls-2" d="M733.41,761.25v0a1.29,1.29,0,0,0-.15-.67,1.8,1.8,0,0,0-1.61-1.08l-.47.06a1.67,1.67,0,0,0-.77.45l-.28.36a1.71,1.71,0,0,0-.24.88v0a1.27,1.27,0,0,0,.15.67,1.26,1.26,0,0,0,.37.57,1.29,1.29,0,0,0,.56.36,1.45,1.45,0,0,0,.68.16l.47-.07a1.73,1.73,0,0,0,.77-.45l.28-.36a1.71,1.71,0,0,0,.24-.88Z" transform="translate(-689.51 -745.31)"/><g id="white"><path class="cls-3" d="M834.68,825.71c-2.38,0-4.75-.09-7.12-.17-1.14,0-1.13,1.72,0,1.76q3.56.12,7.12.16a.88.88,0,0,0,0-1.75Z" transform="translate(-689.51 -745.31)"/><path class="cls-3" d="M915.65,816.7q-14.17,3.38-28.6,5.51t-28.87,3c-5.45.32-10.92.5-16.38.55a.88.88,0,0,0,0,1.76q14.63-.13,29.21-1.55t29-4.1q8.12-1.51,16.15-3.44c1.1-.26.63-1.95-.47-1.69Z" transform="translate(-689.51 -745.31)"/><path class="cls-3" d="M866.38,770.8l.5.46c.09.08.4.51.24.19l-.24-.89v.15l.24-.89q.55-.47.12-.21c.08,0,.07,0,0,0a4.3,4.3,0,0,1-.58.18l-.7.16-.34,0c-1,.13-1.93.22-2.89.33l-3,.33-1.44.16c-.22,0-.43.06-.64.07h-.33c.46.19.57.19.33,0l.63.63a.93.93,0,0,1-.2,1.15.35.35,0,0,1-.25.18l.42-.1c.41-.09.83-.16,1.25-.24.78-.13,1.56-.25,2.35-.36,1.73-.23,3.46-.37,5.2-.46l-1.24-3-.21.24c.13-.09.15-.1.05,0l-.2.11c.15-.06.17-.07.05,0a3.37,3.37,0,0,1-.55.12c.32,0-.12,0-.21,0-.79,0-1.57,0-2.36.1-1.79.2-3.7.81-5.38.5l1.23,2.16a.71.71,0,0,1-.25.34c-.22.18-.24.22,0,.09-.17.07-.2.08-.08,0l.23-.06c.4-.12-.41,0,.22,0l.6-.06,2.74-.28,2.62-.26a13.59,13.59,0,0,1,2.69-.24l-.89-.24a.9.9,0,0,1-.44-1.13.63.63,0,0,1,.34-.69,4.23,4.23,0,0,0-.46.25,1.76,1.76,0,0,0,1.36,3.21,12.84,12.84,0,0,0,2-.8,2.15,2.15,0,0,0,1-2.41c-.48-1.78-2.83-1.88-4.32-1.8a49.72,49.72,0,0,0-8.83,1.35,1.78,1.78,0,0,0-1.23,2.16,1.8,1.8,0,0,0,2.16,1.23c1.66-.39,3.36-.72,5-.94.84-.11,1.69-.2,2.54-.26a11.94,11.94,0,0,1,1.34,0,1.9,1.9,0,0,1,.41,0c.37.05.09.07-.06-.1l-.45-.77,0-.22.24-.89q1.13-.7.45-.42l-.4.16-.8.31,1.36,3.21a3,3,0,0,0,1.67-1.77,2.4,2.4,0,0,0-.65-2.4,3,3,0,0,0-2.61-.47l-2.38.24-4.65.47c-1.58.16-3.33.45-3.82,2.24a1.76,1.76,0,0,0,1.23,2.16,11.48,11.48,0,0,0,3.79,0c1-.14,2-.36,3-.44,1.89-.15,4.13.17,5.47-1.5a1.78,1.78,0,0,0,.37-1.92,1.74,1.74,0,0,0-1.61-1.08c-2.21.11-4.42.34-6.61.66-1,.15-2.09.31-3.13.52a3,3,0,0,0-2.41,2.15,2.41,2.41,0,0,0,2.26,2.86,15.26,15.26,0,0,0,2.93-.25c2.17-.24,4.36-.42,6.52-.75a6,6,0,0,0,3.19-1.27,2.09,2.09,0,0,0,.41-2.46,5.38,5.38,0,0,0-1.29-1.36,1.78,1.78,0,0,0-2.48,0,1.76,1.76,0,0,0,0,2.48Z" transform="translate(-689.51 -745.31)"/></g><line class="cls-4" x1="80.73" y1="36.24" x2="79.2" y2="76.77"/><path class="cls-2" d="M799.21,817.43a28.23,28.23,0,0,1,7.56-.46,1.37,1.37,0,0,0,1.36-1.36,1.4,1.4,0,0,0-1.36-1.37,31.16,31.16,0,0,0-8.29.55,1.37,1.37,0,0,0-1,1.68,1.4,1.4,0,0,0,1.68,1Z" transform="translate(-689.51 -745.31)"/><path class="cls-2" d="M770.45,813.09a8.35,8.35,0,0,0-6.07.5,8.48,8.48,0,0,0-4.23,4.82c-.45,1.18-.78,2.4-1.14,3.61s-1,2.45-.69,3.61a1.84,1.84,0,0,0,1.25,1.35,2,2,0,0,0,2-.66,21.21,21.21,0,0,0,2.22-2.77,24.52,24.52,0,0,0,3.36-7.13,1.38,1.38,0,0,0-1.32-1.73,3.87,3.87,0,0,0-3.14,1.8,9.54,9.54,0,0,0-1.15,3.47,12.88,12.88,0,0,0-.57,3.78,2.47,2.47,0,0,0,3,2.26,1.34,1.34,0,0,0,1-1,7.74,7.74,0,0,0,.18-2.67A1.4,1.4,0,0,0,763.7,821a1.39,1.39,0,0,0-1.37,1.37,5.5,5.5,0,0,1-.08,1.94l1-1a.39.39,0,0,1,.39.06c.07,0,.11,0,.11.09s0,0,0-.16a3.52,3.52,0,0,1,.14-.91c.17-.8.33-1.59.49-2.39a6.54,6.54,0,0,1,.56-1.89,1.26,1.26,0,0,1,1-.75l-1.31-1.72a22,22,0,0,1-2,4.79,23.41,23.41,0,0,1-1.44,2.22c-.23.31-.48.61-.73.91s-.28.33-.43.49-.17.19-.25.28-.16.17,0,0h.72c.42.08.47.37.58.65v-.08c0,.1,0,.08,0-.06.17-.4.26-.86.39-1.28.24-.82.49-1.64.74-2.46a18.59,18.59,0,0,1,.73-2.18,6.2,6.2,0,0,1,.93-1.56,5.65,5.65,0,0,1,5.94-1.68c1.68.53,2.4-2.1.72-2.63Z" transform="translate(-689.51 -745.31)"/></svg>