<svg id="Layer_1" data-name="Layer 1" xmlns="http://www.w3.org/2000/svg" xmlns:xlink="http://www.w3.org/1999/xlink" viewBox="0 0 700 550"><defs><style>.cls-1{fill:#fff;stroke:url(#radial-gradient);}.cls-1,.cls-2{stroke-miterlimit:10;}.cls-2{fill:none;stroke-width:3px;stroke:url(#radial-gradient-2);}</style><radialGradient id="radial-gradient" cx="350" cy="275" r="315.24" gradientUnits="userSpaceOnUse"><stop offset="0" stop-color="#ddbf67"/><stop offset="0.3" stop-color="#ddbb5f"/><stop offset="0.77" stop-color="#dcae48"/><stop offset="1" stop-color="#dca73a"/></radialGradient><radialGradient id="radial-gradient-2" cx="388.76" cy="290.83" r="265.23" gradientUnits="userSpaceOnUse"><stop offset="0.11" stop-color="#f9ec00"/><stop offset="0.27" stop-color="#f7e406"/><stop offset="0.69" stop-color="#f2d112"/><stop offset="1" stop-color="#f0cb17"/></radialGradient></defs><title>gold-line</title><rect class="cls-1" width="700" height="550"/><path class="cls-2" d="M580.83-30.45v57.6s-23,38.41-30,45.32S524,119.32,524,119.32v38.4s-27.65,28.42-32.26,31.49-58.37,58.37-57.6,62.22,3.07,39.17,3.07,39.17,6.43,0-27.12,14.59S385,300.58,365,324.39s-14.6,39.94-14.6,39.94l14.6,33s42.24,3.08,3.07,27.65a512.41,512.41,0,0,0-66.82,49.93L269,504.11s-34.56,13.06-43,31.49-9.22,30.73-9.22,30.73,20.74,16.12-20.73,44.54"/></svg>