<svg id="Layer_1" data-name="Layer 1" xmlns="http://www.w3.org/2000/svg" viewBox="0 0 387.14 642.56"><defs><style>.cls-1{fill:none;stroke:#deb73b;stroke-miterlimit:10;stroke-width:3px;}</style></defs><title>gold-line</title><path class="cls-1" d="M630.83-30.45v57.6s-23,38.41-30,45.32S574,119.32,574,119.32v38.4s-27.65,28.42-32.26,31.49-57.6,20-57.6,20-.77,38.4,0,42.25,3.07,39.17,3.07,39.17,6.43,0-27.12,14.59S435,300.58,415,324.39s-14.6,39.94-14.6,39.94l14.6,33s42.24,3.08,3.07,27.65a512.41,512.41,0,0,0-66.82,49.93L319,504.11s-34.56,13.06-43,31.49-9.22,30.73-9.22,30.73,20.74,16.12-20.73,44.54" transform="translate(-245.19 30.45)"/></svg>