<svg id="Layer_1" data-name="Layer 1" xmlns="http://www.w3.org/2000/svg" viewBox="0 0 349.04 297.52"><defs><style>.cls-1,.cls-3{fill:none;stroke:#f2f9f1;stroke-miterlimit:10;}.cls-1{stroke-width:4.8px;}.cls-2,.cls-4{fill:#f2f9f1;}.cls-3{stroke-width:7px;}.cls-4{font-size:42.03px;font-family:Screaming_Neon, Screaming Neon;}</style></defs><title>logo</title><g id="logo"><path class="cls-1" d="M378,468.24c-8,3.19-12.49,6.69-12.49,10.34a6.34,6.34,0,0,0,2.24,4.45" transform="translate(-362.84 -390.73)"/><path class="cls-1" d="M366.37,496.13a5.42,5.42,0,0,0-1.13,3.18c0,15.22,77,27.55,172,27.55s172-12.33,172-27.55a5.35,5.35,0,0,0-1-3" transform="translate(-362.84 -390.73)"/><path class="cls-2" d="M608.86,404C644,406.92,667,411.85,667,417.43c0,8.95-59.18,16.2-132.18,16.2-12.78,0-25.13-.23-36.82-.64v0Zm-2,21.83a2.5,2.5,0,0,0,.25-1.91,2.47,2.47,0,0,0-3-1.72,21.18,21.18,0,0,1-3.78.88c-.53.06-1.06.12-1.59.15A2.59,2.59,0,0,0,597,424a2.45,2.45,0,0,0-.73,1.74,2.52,2.52,0,0,0,.73,1.76,2.43,2.43,0,0,0,1.74.72,25,25,0,0,0,6.69-1.21A2.61,2.61,0,0,0,606.91,425.84Z" transform="translate(-362.84 -390.73)"/><path class="cls-1" d="M410.5,431.58c28.18,6.34,75,10.5,128,10.5,63.29,0,117.76-5.94,142.19-14.44" transform="translate(-362.84 -390.73)"/><path class="cls-1" d="M694.13,416.18c-4.7-12.86-72.58-23.05-155.66-23.05-84,0-152.4,10.41-155.79,23.46" transform="translate(-362.84 -390.73)"/><path class="cls-1" d="M497.81,433h.2c11.69.41,24,.64,36.82.64,73,0,132.18-7.25,132.18-16.2,0-5.58-23.06-10.51-58.15-13.42-21.12-1.75-46.6-2.78-74-2.78-65.24,0-98.53,4.76-114.66,11.36" transform="translate(-362.84 -390.73)"/><polyline class="cls-1" points="246.17 13.24 246.03 13.29 135.18 42.24"/><g id="stroke"><path class="cls-2" d="M380.37,415.3c-3.61,17.65-2.49,35.82-5.5,53.55a2.47,2.47,0,0,0,1.67,2.95,2.42,2.42,0,0,0,3-1.68c3-17.72,1.89-35.91,5.5-53.55a2.47,2.47,0,0,0-1.68-2.95,2.42,2.42,0,0,0-2.95,1.68Z" transform="translate(-362.84 -390.73)"/><path class="cls-2" d="M366,484.72a7.28,7.28,0,0,0,.59.62c-.07,0-.33-.47,0,0,.08.11.15.23.22.35a7.45,7.45,0,0,1,.45.83c.08.16.16.33.23.49-.25-.56,0,0,0,.11a15.44,15.44,0,0,1,.58,2c0,.18.08.37.11.55s.15.71,0,.08a7.61,7.61,0,0,1,.08.95,8.77,8.77,0,0,1,0,.89c0,.33-.16.39,0,0a2.05,2.05,0,0,0-.07.34c0,.13-.25.54-.06.26s-.07.07-.11.15c-.22.42.31-.27,0,0l-.36.34c-.35.33.39-.24-.06,0-.12.08-.24.17-.36.24l-.84.52a18.16,18.16,0,0,0-2.11,1.48,2.41,2.41,0,0,0,0,3.39,2.47,2.47,0,0,0,3.4,0c.36-.3-.38.23.15-.1.17-.12.34-.24.52-.35l.92-.56a9.9,9.9,0,0,0,2.13-1.6,6.61,6.61,0,0,0,1.66-5,16,16,0,0,0-1-5,11,11,0,0,0-2.68-4.36,2.4,2.4,0,1,0-3.39,3.39Z" transform="translate(-362.84 -390.73)"/><path class="cls-2" d="M692.58,417.68l5.77,54.21a2.47,2.47,0,0,0,2.4,2.4,2.42,2.42,0,0,0,2.4-2.4l-5.77-54.21a2.46,2.46,0,0,0-2.4-2.4,2.42,2.42,0,0,0-2.4,2.4Z" transform="translate(-362.84 -390.73)"/><path class="cls-2" d="M699.32,474.13a13.59,13.59,0,0,0,3.13,2.83c1.22.79,2.6,1.08,3.86,1.74,1.55.82.57,3.27,0,4.45-1.37,2.6-3,5.09-2.85,8.15s1.69,5.81,3.31,8.37,5.79.2,4.14-2.42c-1.36-2.17-3.25-4.87-2.5-7.57s2.76-4.64,3.31-7.34c.51-2.54.15-5.37-2-7.1-1.13-.93-2.52-1.18-3.79-1.82a9.66,9.66,0,0,1-3.21-2.68,2.41,2.41,0,0,0-3.39,0,2.46,2.46,0,0,0,0,3.39Z" transform="translate(-362.84 -390.73)"/><path class="cls-2" d="M409.24,435.38l-3.3,39.82a2.41,2.41,0,0,0,2.4,2.4,2.45,2.45,0,0,0,2.4-2.4l3.3-39.82a2.41,2.41,0,0,0-2.4-2.4,2.45,2.45,0,0,0-2.4,2.4Z" transform="translate(-362.84 -390.73)"/><path class="cls-2" d="M412.1,436.61c3.09,0,3.09-4.8,0-4.8s-3.09,4.8,0,4.8Z" transform="translate(-362.84 -390.73)"/><path class="cls-2" d="M406.86,474.07a16.18,16.18,0,0,0-9.66,8.5,2.63,2.63,0,0,0-.24,1.85,2.4,2.4,0,0,0,4.39.57,13,13,0,0,1,1.35-2.35c.07-.11.15-.2.22-.3-.44.6-.17.22-.06.09s.26-.31.4-.46a13.62,13.62,0,0,1,1-1l.52-.45.05,0c-.35.27,0,0,.1-.07a11.21,11.21,0,0,1,1.14-.75q.58-.34,1.2-.63l.28-.13c-.66.33-.28.12-.11.06l.7-.25a2.4,2.4,0,0,0-1.28-4.63Z" transform="translate(-362.84 -390.73)"/><path class="cls-2" d="M423.29,436.53l-2.22,25.15L420,474.25a26.1,26.1,0,0,1-.25,2.65c0,.1-.19.59-.08.48s-.55.11-.71.14a13.09,13.09,0,0,0-4.53,1.66,12.6,12.6,0,0,0-5.76,9.25,2.42,2.42,0,0,0,2.4,2.4,2.46,2.46,0,0,0,2.4-2.4,7.6,7.6,0,0,1,4.66-5.78c1.44-.56,3-.47,4.3-1.38,1.78-1.24,2-3.3,2.22-5.29q1.13-12.57,2.22-25.15l1.26-14.3a2.42,2.42,0,0,0-2.4-2.4,2.46,2.46,0,0,0-2.4,2.4Z" transform="translate(-362.84 -390.73)"/><path class="cls-2" d="M444.83,521.85a158.7,158.7,0,0,0,40,2.69c3.06-.19,3.09-5,0-4.8a153.2,153.2,0,0,1-38.71-2.52,2.47,2.47,0,0,0-3,1.67,2.43,2.43,0,0,0,1.68,3Z" transform="translate(-362.84 -390.73)"/><path class="cls-2" d="M649.88,438.49c-3-1.39-6.16-1.51-9.44-1.49a31,31,0,0,1-9.07-1.21c-3-.88-5.88-2.07-8.94-2.73a73.16,73.16,0,0,0-8.61-1.24c-3-.28-6-.47-9-.74a33.15,33.15,0,0,1-7-1,1.77,1.77,0,0,1-.61-.34,5.39,5.39,0,0,1-.71-1.09,3.86,3.86,0,0,0-3.76-1.6c-2.53.26-5.59,1.6-7,3.78a5.41,5.41,0,0,0-.59,4.83c.58,1.57,1.82,2.79,2.74,4.16a28.21,28.21,0,0,1,4.11,9.52,2.43,2.43,0,0,0,4.39.58c1.22-2.07,1.3-4.35,1.86-6.62.51-2.09,1.82-2.88,3.91-3.15a67.85,67.85,0,0,1,8.07-.17l9.44-.07a2.4,2.4,0,0,0,0-4.8l-16.08-1.63c-4.13-.42-8.62-.27-11.22,3.46h4.15l-1.25-2.74a2.42,2.42,0,0,0-3.77-.49,11.76,11.76,0,0,0-3.2,7.63,2.4,2.4,0,0,0,4.8,0l.43-4.8c.25-2.83-3.89-3.07-4.71-.64a19.87,19.87,0,0,1-2.23,4.5l4.47,1.21a19.77,19.77,0,0,1,1.95-7.95,2.45,2.45,0,0,0-.86-3.28,2.42,2.42,0,0,0-3.28.86,25.63,25.63,0,0,0-2.61,10.37c-.09,2.5,3.23,3.11,4.47,1.22a25.36,25.36,0,0,0,2.72-5.65l-4.72-.64-.43,4.8h4.8a6.56,6.56,0,0,1,1.79-4.23l-3.77-.49,1.25,2.74c.81,1.78,3.23,1.33,4.15,0,.73-1,2.28-1.22,3.44-1.27a41.62,41.62,0,0,1,5.58.38L619.72,440v-4.8l-10.44.08a47.61,47.61,0,0,0-8.93.43,8.16,8.16,0,0,0-6.18,4.9c-.91,2.23-.65,4.89-1.88,7l4.39.57a32.64,32.64,0,0,0-3.06-8.12,28,28,0,0,0-2.14-3.42c-.43-.59-1.78-1.81-1.85-2.6s1.1-1.24,1.62-1.47.83-.33,1.25-.47,1.24-.08.4-.45c-.66-.29-.29-.07,0,.33s.36.5.55.74a5.7,5.7,0,0,0,1.24,1.16,6.9,6.9,0,0,0,2.76,1.13c5.1,1,10.4,1.14,15.58,1.61a69.17,69.17,0,0,1,7.59,1,71.63,71.63,0,0,1,7.74,2.3,35.38,35.38,0,0,0,10,1.93c3,.07,6.36-.46,9.16.84a2.48,2.48,0,0,0,3.29-.86,2.43,2.43,0,0,0-.87-3.29Z" transform="translate(-362.84 -390.73)"/><path class="cls-2" d="M442.73,522.93a7.42,7.42,0,0,1,1.68-.44l-.63.09a7.83,7.83,0,0,1,1.81,0l-.64-.08.41.07a1.84,1.84,0,0,0,1,0,1.76,1.76,0,0,0,.89-.28,2.48,2.48,0,0,0,1.1-1.44,2.44,2.44,0,0,0-.24-1.85,2.36,2.36,0,0,0-1.43-1.1,9.28,9.28,0,0,0-5.19.37,1.68,1.68,0,0,0-.81.43,1.74,1.74,0,0,0-.62.67,2.44,2.44,0,0,0-.24,1.85,2.36,2.36,0,0,0,1.1,1.43,2.28,2.28,0,0,0,1.85.24Z" transform="translate(-362.84 -390.73)"/><path class="cls-2" d="M502.76,456.39c3.09,0,3.09-4.8,0-4.8s-3.09,4.8,0,4.8Z" transform="translate(-362.84 -390.73)"/><path class="cls-2" d="M475.37,443.52q-.69,26-2.25,51.93c-.19,3.09,4.61,3.08,4.79,0q1.56-25.95,2.26-51.93c.08-3.09-4.72-3.09-4.8,0Z" transform="translate(-362.84 -390.73)"/><path class="cls-2" d="M606.43,409.27c-18.7-3.52-37.74-4.33-56.72-3.94s-38.09,1.88-57.13,2.78c-5.26.24-10.53.45-15.8.56-2.4.06-4.84.21-7.23.06-1.4-.09-3-.34-3.63-1.63l-.86,3.28c3.79-1.92,8.25-1.68,12.38-1.65l15.19.12,30.13.23,16.94.13c3.09,0,3.09-4.78,0-4.8l-61.76-.47c-5.23,0-10.53-.12-15.3,2.3a2.43,2.43,0,0,0-.86,3.28c1.77,3.46,5.92,4.06,9.42,4.05,4.86,0,9.72-.19,14.57-.37,9.74-.37,19.47-1,29.19-1.52,19.3-1.12,38.64-2.18,58-1.34a228,228,0,0,1,32.23,3.55,2.46,2.46,0,0,0,3-1.67,2.42,2.42,0,0,0-1.67-3Z" transform="translate(-362.84 -390.73)"/><path class="cls-2" d="M420.3,434.84c.17,0,2.52.43,2.42.65a4.62,4.62,0,0,1-.52-.28c-.36-.21-.71-.45-1.05-.69-.15-.11-.3-.24-.46-.34,0,0,1.16.94.58.45-.23-.2-.46-.39-.68-.6a6,6,0,0,0-6.56-1.24,5.93,5.93,0,0,0-3.69,5.48,199.77,199.77,0,0,1,.58,21.47c-.07,1.73-.2,3.46-.39,5.18a7.25,7.25,0,0,0-.09.8s.18-1.28.08-.6l-.18,1.17c-.14.83-.29,1.65-.47,2.46s-.37,1.59-.61,2.37a3.74,3.74,0,0,0-.27.77c0-.07.53-1,.2-.51a7.85,7.85,0,0,0-.73,1.2s.82-.9.38-.54c-.13.11-.25.26-.37.38s-.52.47-.79.71c-.8.7,1-.7.09-.07l-1,.73a20.05,20.05,0,0,0-5.32,5.15c-1.85,2.82-2.06,6.12-1.54,9.35s4.53,5.11,7.38,4.19c3.37-1.09,4.74-4.05,4.19-7.38,0,.07,0,1.17.11.56a2.68,2.68,0,0,0,0-.63c.07.09-.3,1.15-.06.56a3.63,3.63,0,0,0,.17-.6c.06.08-.56,1-.18.48a5.5,5.5,0,0,0,.28-.48c.47-.8-.84.92.06,0a10.44,10.44,0,0,1,.77-.71c.13-.11.28-.21.41-.33s-1,.77-.51.4c.84-.58,1.66-1.21,2.48-1.84a16.08,16.08,0,0,0,4.25-4.56,19.94,19.94,0,0,0,2.13-5.82c1.62-7.2,1.78-14.7,1.56-22.05-.11-3.94-.36-7.88-.61-11.82l-10.24,4.24c2.15,2.06,5.11,4.27,8.2,4.33a6,6,0,0,0,0-12Z" transform="translate(-362.84 -390.73)"/><path class="cls-2" d="M398.73,485.36a9.56,9.56,0,0,0-.5,6.3,8,8,0,0,0,5.45,5.45,7.3,7.3,0,0,0,8-3.3,7.15,7.15,0,0,0,1-3.68,7.73,7.73,0,0,0-2-4.85,5.46,5.46,0,0,0-3.45-1.65,5.75,5.75,0,0,0-3.82.71c-2.1,1.36-3.7,4.24-2.76,6.78a12.82,12.82,0,0,1,.65,2.45l-.21-1.6a12.63,12.63,0,0,1,0,3.25l.21-1.59c-.34,2.18-1.09,4.12-.45,6.37a7,7,0,0,0,8.56,4.83,5.83,5.83,0,0,0,3.11-2.15,5.41,5.41,0,0,0,1.29-3.63c-.33-2.67-.55-5.39-1-8a7.81,7.81,0,0,0-2.15-4.11,8.84,8.84,0,0,0-5.93-2.15l1.6.21c-.65-.11-.42,0,.67.4.93.8,1.19,1,.79.59.7,1,.91,1.24.62.73.45,1.14.58,1.43.37.87s-.29-1-.46-1.53c-.91-2.68-2.63-5-5.51-5.71a5.94,5.94,0,0,0-5.23,1.08,6.31,6.31,0,0,0-2.37,4.71A18.66,18.66,0,0,0,398.69,499a20.51,20.51,0,0,0,5.7,5.44c.75.47,1.56.83,2.32,1.27.16.1.32.21.49.3.58.34-1.06-1-.45-.34s-.38-.55-.42-.61c.54.81-.44-1.42-.2-.45l-.22-1.59a5.06,5.06,0,0,1,0,1.29l.21-1.59a27,27,0,0,0-.42,3.22,8.78,8.78,0,0,0,1.09,4.22c1.34,2.84,5.64,3.8,8.2,2.15a6.16,6.16,0,0,0,2.16-8.21c.34,1,.45,1.16.34.55l.21,1.6a7.46,7.46,0,0,1,.05-1l-.21,1.59a15.63,15.63,0,0,0,.27-4.67,8.53,8.53,0,0,0-2.47-4.94c-1.58-1.53-3.49-2.25-5.26-3.45-.05,0-.48-.36-.5-.35s1.13,1,.51.37c-.33-.32-.68-.62-1-.95s-1.07-1.62-.13-.08c-.21-.34-.46-.67-.67-1a12.9,12.9,0,0,1-.65-1.21c-.1-.2-.41-.92,0,0s.06.09,0-.14a14.35,14.35,0,0,1-.61-2.67l.21,1.59a13.74,13.74,0,0,1,0-3.33l-7.59,5.78c.71.18-1-.44-.93-.4a6.35,6.35,0,0,1-1.64-1.56c.26.44-.48-1.43-.37-.9,0,.13.09.26.13.39.26.84.51,1.62.85,2.43a8,8,0,0,0,3.13,3.78,10.44,10.44,0,0,0,4.85,1.19l-1.59-.22a3.33,3.33,0,0,1-1.69-1.21,2.89,2.89,0,0,1-1.23-1.73,3.94,3.94,0,0,0,.15.82l-.21-1.6.77,6.17,4.41-5.79-.26.07h3.19l3.22,3.35.21,1.6a1.83,1.83,0,0,1,0-.66l-.22,1.6a31.42,31.42,0,0,0,.86-5.62,16.59,16.59,0,0,0-1-5.67l-10,5.84.14.18-1.54-2.65.08.2-.21-1.59a1.09,1.09,0,0,1,0,.44l.21-1.59a4.71,4.71,0,0,1,3.25-3.21l1.59-.21a1.2,1.2,0,0,1-.5,0l1.6.21,2,1.18a2.87,2.87,0,0,1,.77,1.28c.39,1,.11.2.07-.06l.22,1.6a3.21,3.21,0,0,1,0-.76l-.22,1.6a9.77,9.77,0,0,1,.59-1.83,6,6,0,0,0-.6-4.62,6.17,6.17,0,0,0-3.59-2.76,6.06,6.06,0,0,0-4.62.61,7.08,7.08,0,0,0-2.76,3.58Z" transform="translate(-362.84 -390.73)"/><path class="cls-2" d="M473.66,505.1q-30.32-3.33-60.83-4.11a6,6,0,1,0,0,12q30.48.78,60.83,4.11c3.13.34,6.14-3,6-6-.16-3.55-2.64-5.63-6-6Z" transform="translate(-362.84 -390.73)"/><path class="cls-2" d="M454.53,514a92.45,92.45,0,0,1-12.11-.53l-1.69-.19c-.17,0-1.76-.23-.89-.11l-1.12-.16-1.45-.23q-3-.48-6-1.08c-3.78-.74-7.64-1.44-11.34-2.52-.37-.11-.73-.25-1.1-.36s-.25-.08.55.25l-.68-.34-.33-.2c-.53-.35-.43-.26.3.28a3.59,3.59,0,0,1-.4-.38c-.32-.32-.18-.13.4.58-.09-.13-.18-.28-.26-.42-.22-.41-.14-.18.24.67a3.37,3.37,0,0,0-.26-.95c.11,1,.16,1.26.14.62l-.14,1c.16-.6.06-.41-.3.55.31-.52.18-.38-.39.44l-7.27.94a105.68,105.68,0,0,0,24.13,7.23c8.28,1.47,16.67,2.3,25,3.07l14.92,1.36c3.13.28,6.13-3,6-6-.16-3.5-2.64-5.69-6-6-8.22-.75-16.44-1.42-24.64-2.32-1.89-.2-3.77-.43-5.65-.67-.87-.1,1.11.16.24,0l-.67-.1-1.35-.19-2.92-.46c-3.86-.64-7.71-1.42-11.49-2.42-2.11-.56-4.2-1.18-6.26-1.88q-1.5-.51-3-1.08c-.56-.21-1.12-.44-1.68-.66-.12,0-.84-.35-.11,0s-.49-.22-.53-.24c-2.34-1-5.4-1.19-7.27.94-4.5,5.12-2.84,12.31,2.47,16.08,3.67,2.61,8.75,3.21,13.05,4.12,9.77,2.07,19.77,3.65,29.78,3.41,3.14-.07,6.15-2.71,6-6a6.09,6.09,0,0,0-6-6Z" transform="translate(-362.84 -390.73)"/><path class="cls-2" d="M471.72,500.92c-10.3-1.44-20.7-2.26-31.06-3.28l-30.06-3c-3.13-.31-6.13,3-6,6,.16,3.52,2.65,5.67,6,6l29.57,2.91L455,511l7.37.73,3.42.38,1.95.23,1,.13-.14,0a6.59,6.59,0,0,0,4.63-.6,6.11,6.11,0,0,0,2.75-3.59c.65-2.83-.86-6.91-4.19-7.38Z" transform="translate(-362.84 -390.73)"/><path class="cls-2" d="M405,516.49v.3a1.2,1.2,0,0,0,2.35.32c2-5.5,2.11-12.76-3.66-16-2.36-1.32-5-1.78-7.52-2.81a7.88,7.88,0,0,1-2.87-1.9,5.24,5.24,0,0,1-1.21-3.88c.24-3.71,3.44-6.25,6.42-7.94L397,482.69A9.6,9.6,0,0,0,394,490a9.31,9.31,0,0,0,1,4c.61,1.17,1.73,2.32,1.8,3.7l2.05-.85a6.87,6.87,0,0,1-2.21-4.35,1.24,1.24,0,0,0-.88-1.15,1.21,1.21,0,0,0-1.36.55.93.93,0,0,1-.53.63l1.17.31a2.09,2.09,0,0,1-.39-2.14l-2.31-.64a9.41,9.41,0,0,0,2.21,9c.79.83,2.44,0,2-1.17a13.39,13.39,0,0,0-2.9-4.61,1.2,1.2,0,0,0-1.88,1.45c2.07,3.79,5.84,6.11,9.37,8.38,3.17,2,6.81,4.56,7.85,8.4a4.49,4.49,0,0,1,0,2.44,1.76,1.76,0,0,1-1.21,1.36l1.51,1.16a2.21,2.21,0,0,1,.84-1.36,1.21,1.21,0,0,0,0-1.7,1.23,1.23,0,0,0-1.7,0,4.63,4.63,0,0,0-1.54,3.06,1.21,1.21,0,0,0,1.52,1.15c2.05-.55,3-2.52,3.13-4.5a9.32,9.32,0,0,0-2-5.87c-2.72-3.76-6.88-5.85-10.59-8.46a16.15,16.15,0,0,1-5.1-5.27L392,495a10.48,10.48,0,0,1,2.28,3.56l2-1.17a6.93,6.93,0,0,1-1.6-6.66,1.2,1.2,0,0,0-2.31-.64,4.52,4.52,0,0,0,1,4.48,1.21,1.21,0,0,0,1.17.31,3.25,3.25,0,0,0,2-1.74l-2.23-.61a9.37,9.37,0,0,0,2.91,6.05,1.21,1.21,0,0,0,2.05-.85c-.14-2.7-2.52-4.5-2.79-7.17a7.28,7.28,0,0,1,2.32-6.16c1-.93-.29-2.55-1.45-1.88-3,1.7-5.81,4-7,7.3a8,8,0,0,0,2.05,8.95c2.15,1.79,4.92,2.42,7.51,3.3s4.82,2.06,5.78,4.63c1.18,3.14.53,6.71-.56,9.78l2.36.32v-.3a1.2,1.2,0,0,0-2.4,0Z" transform="translate(-362.84 -390.73)"/><path class="cls-2" d="M676.45,428.9c2.36,12.79,4.59,25.61,7.07,38.38a45.71,45.71,0,0,0,2.13,8,27.49,27.49,0,0,0,1.81,3.89,24.76,24.76,0,0,1,2.18,3.52c.34.94-.38,1.88-.83,2.66-.68,1.17-1.45,2.29-2,3.51a10.75,10.75,0,0,0-.41,8.76c.63,1.65,1.47,3.17,2.25,4.74a8.82,8.82,0,0,1,1.23,4.22,2.2,2.2,0,0,1-1.11,1.95,9,9,0,0,1-.86.41,2.49,2.49,0,0,1-.61,0c.18,0-.25-.14-.36-.21-2.92-1.79-5.59,2.8-2.68,4.58a7.07,7.07,0,0,0,8.12-.88c2.47-2,3.15-5,2.59-8.07-.6-3.27-2.8-5.87-3.75-9-.89-2.89.81-4.95,2.2-7.35a10.36,10.36,0,0,0,1.63-4.38,7.79,7.79,0,0,0-1.4-4.68,29.84,29.84,0,0,1-3.85-8.1c-1.79-6.36-2.64-13.06-3.83-19.55l-4.38-23.79a2.66,2.66,0,0,0-3.26-1.85,2.71,2.71,0,0,0-1.85,3.26Z" transform="translate(-362.84 -390.73)"/><path class="cls-2" d="M393.27,488.53v0l.12-.29,0,.05.18-.24,0,.05.24-.19-.07,0,.29-.12-.07,0,.32-.05h-.07l.32.05,0,0a1,1,0,0,0-.48,0,1,1,0,0,0-.45.14.9.9,0,0,0-.33.31,1,1,0,0,0-.22.41l0,.32a1.18,1.18,0,0,0,.16.61l.19.24a1.24,1.24,0,0,0,.53.31h0l.34,0h.05a1.86,1.86,0,0,0,.34,0h0a1.43,1.43,0,0,0,.34-.14l0,0,.27-.21,0,0a1.46,1.46,0,0,0,.21-.28l0,0c.05-.1.09-.21.13-.31a1,1,0,0,0,0-.48,1,1,0,0,0-.14-.45.9.9,0,0,0-.31-.33.91.91,0,0,0-.41-.22l-.32,0a1.12,1.12,0,0,0-.6.16l-.25.19a1.24,1.24,0,0,0-.31.53Z" transform="translate(-362.84 -390.73)"/><path class="cls-2" d="M410.7,473.27c-.77-.77-1.71-.5-2.61-.14s-1.81.75-2.69,1.17a28.27,28.27,0,0,0-4.77,2.83,18.23,18.23,0,0,0-6.64,8.79,13.38,13.38,0,0,0-.51,6.19A1.21,1.21,0,0,0,395,493a1.24,1.24,0,0,0,.84-1.48c-.56-3.8,1.26-7.65,3.86-10.33a21.77,21.77,0,0,1,4.72-3.6c.88-.5,1.79-1,2.71-1.39l1.26-.55.78-.31c.09,0,.38-.09.31-.12l-.53-.31.11.11a1.2,1.2,0,0,0,1.69-1.7Z" transform="translate(-362.84 -390.73)"/><path class="cls-2" d="M420,478.49a13.29,13.29,0,0,0-7.41,6.55,15.07,15.07,0,0,0-.61,11,29.76,29.76,0,0,0,2.73,6.23,1.2,1.2,0,0,0,2.07-1.21c-2.09-3.71-3.88-8.16-2.92-12.49a10.82,10.82,0,0,1,6.78-7.77,1.24,1.24,0,0,0,.84-1.48,1.22,1.22,0,0,0-1.48-.84Z" transform="translate(-362.84 -390.73)"/><path class="cls-2" d="M416.93,433.81a9.34,9.34,0,0,0-4.36-2.65,2.16,2.16,0,0,0-2.61.89,7.12,7.12,0,0,0-.7,2.52c-.61,3.89-.06,7.78.52,11.63a1.21,1.21,0,0,0,1.48.84,1.24,1.24,0,0,0,.84-1.48,41,41,0,0,1-.66-9.05,16.31,16.31,0,0,1,.28-2.1,10.05,10.05,0,0,0,.26-1.05c0-.27.11.09-.05,0l-.1.09.2.06a15.73,15.73,0,0,1,1.74.78,6.86,6.86,0,0,1,1.46,1.23c1.06,1.13,2.75-.57,1.7-1.7Z" transform="translate(-362.84 -390.73)"/><path class="cls-2" d="M470.82,409.89a106.92,106.92,0,0,0,11.92-1.84,1.21,1.21,0,0,0,.84-1.47,1.23,1.23,0,0,0-1.48-.84,102.09,102.09,0,0,1-11.28,1.75,1.24,1.24,0,0,0-1.2,1.2,1.2,1.2,0,0,0,1.2,1.2Z" transform="translate(-362.84 -390.73)"/><path class="cls-2" d="M497.5,435.5c3.09,0,3.09-4.8,0-4.8s-3.09,4.8,0,4.8Z" transform="translate(-362.84 -390.73)"/><path class="cls-2" d="M422.57,412.6v0a1.83,1.83,0,0,0-.21-.92,1.7,1.7,0,0,0-.49-.77,1.84,1.84,0,0,0-.77-.5,1.87,1.87,0,0,0-.93-.21l-.64.09a2.38,2.38,0,0,0-1.06.62l-.37.48a2.37,2.37,0,0,0-.33,1.21v0a2.72,2.72,0,0,0,.7,1.7,1.81,1.81,0,0,0,.78.5,1.7,1.7,0,0,0,.92.2l.64-.08a2.42,2.42,0,0,0,1.06-.62l.37-.48a2.38,2.38,0,0,0,.33-1.22Z" transform="translate(-362.84 -390.73)"/><path class="cls-3" d="M672.4,494.1a565.18,565.18,0,0,1-76.85,12.64,570.26,570.26,0,0,1-78.85,1.95c-1.36-.06-2.37-2.18-2.26-4.73h0c.1-2.55,1.27-4.57,2.6-4.51a561.57,561.57,0,0,0,77.6-1.91,556.27,556.27,0,0,0,75.61-12.43c1.26-.3,2.77,1.46,3.38,3.94h0C674.23,491.53,673.69,493.79,672.4,494.1Z" transform="translate(-362.84 -390.73)"/><path class="cls-2" d="M673,495.76c-29.84,3.6-59.1,11.87-89.29,12.25-15,.19-30-1-45-1.73-7.41-.35-14.84-.15-22.25-.47a12.43,12.43,0,0,1-3.26-.44c-1.46-.44.38.85-.82-.49-1.84-2.05-2.2-4.59-5.46-5.13l4.77,6.27c-.11,1.63-.84,2.76.29.67a19.41,19.41,0,0,0,1.3-3.29,31.83,31.83,0,0,1,1.52-4.67l-8.9,2.33c4.44,3.23,10.07,0,14.09-2.28.94-.54,1.87-1.13,2.84-1.62.28-.15,2.13-.72,1.44-.64,3.91-.47,8.84,1.09,12.82,1.32,14.52.82,28.86-1.12,43.28-2.56,16.75-1.67,33.64-2.28,50.44-3.56,18.29-1.4,36.58-3,54.86-4.56L682.39,475a18.48,18.48,0,0,0-8,14.42c-.5,6.8,2.59,13.19,3.69,19.77l4.54-8c-40.27,10.54-82.23,7.36-123.35,10.62-6.77.54-9.45,11.43-1.73,12.77q1.92.39-2.32-1.49l-1.67-6.33,0,.08,3-3.88c.24-.16,1.48-.33.09-.17-.89.1-1.81.38-2.71.55-2.18.41-4.38.76-6.58,1.15-4.38.78-8.78,1.23-10.58,6a6.37,6.37,0,0,0,1.67,6.32,7,7,0,0,0,3.42,1.85l1.73-12.76c-9.63-.44-19.24-1.1-28.86-1.67q-6.41-.37-12.81-.7c-1.55-.08-4.22-.44-4.86-.33-3.67.64-2.71,12.59,1.7,10.63a6.73,6.73,0,0,0,3.63-8.74c-1.52-3.69-5-4.26-8.55-4.54-4.76-.39-10.7,1.12-13.26-3.88-1.33-2.6-1.62-5.86-2.1-8.69a45.9,45.9,0,0,0-3-10.58L468.1,497a361.18,361.18,0,0,0,37.81,4.57c6.3.42,9.05-9.35,3.28-12.11l-10.81-5.18-5.4-2.59c-.72-.35-2.77-1.72-2.46-1.13-.92-1.76-.64-5-.89-7-.29-2.25-.59-4.49-.85-6.73a48.61,48.61,0,0,1-.09-8.7c.09-1.64.17-3.31.4-4.93a4.45,4.45,0,0,0,.23-1.27q.09-.45.21-.87a5.37,5.37,0,0,1-3.65,3.23l-5-.65q-2.5-2.83-1.32-1a9.41,9.41,0,0,0,1.36,1.9,9.56,9.56,0,0,0,2.23,1.87c1.6.93,3.57,1,4.61,1.63l-3.22-5.61q-1.53,12.86-3.08,25.71c-1.07,8.82-2.37,17.64-7.3,25.23-2.14,3.31-.16,8.8,3.89,9.55,8,1.49,14.82,6.73,23.14,7,6.7.21,8.5-8.78,3.28-12.11-4-2.54-5.68-11.74-5.45-16,.27-4.9,2.37-10.09,3.15-15a77.4,77.4,0,0,0,1.22-15A23.9,23.9,0,0,0,501,451.51a26.21,26.21,0,0,0-1.57-3.08,5.08,5.08,0,0,1-.61-1.44q-7.3,3.56-4.18,5c1.77,1.23,5.81,1.89,8,2.27,4.21.75,8.79,0,13.05-.1,20.45-.41,40.43,3.47,60.84,1.12l-1.73-12.77a7,7,0,0,0-3.16,1.77c-3.05,2.48-2.29,8.59,1.31,10.21a18.35,18.35,0,0,0,6.85,1.19c1.17.06,2.34.1,3.52.17,2.08.11,3.8,1.15-.1-.6L581.83,445l2.57-1.57c-7,1.5-5.63,13.49,1.73,12.76q23.58-2.31,47.13-4.81c14.3-1.49,28.75-2.88,42.26-8.1l-8-4.54,5.79,36.61,4.54-8c-6.31,1.82-6.35-6.83-6.78-10.62-.75-6.77-5-12.18-12.13-12.45l4.6,11.1a5.22,5.22,0,0,1,3.94-1.39l-1.72-12.77A735.53,735.53,0,0,1,505.7,453.75c-3.19-.1-6.93,3.07-6.5,6.5.83,6.52,2.67,12.86,2.3,19.48L514.27,478l-.08-.2c-1.38-3.58-5.78-6.5-9.54-3.88-3.23,2.25-5,6.93-5,10.83,0,8.39,8.69,7.18,14.45,6.83q24-1.47,48-3.12c32.49-2.25,65-4.84,97.35-8.17,4.39-.46,7.16-3.78,6.27-8.23a78.51,78.51,0,0,0-4.57-15c-1.4-3.36-4.19-5.4-8-4.54-47.27,10.72-96.18,5.21-144,11-8.34,1-8.36,12,0,13,2.57.32,2.76.84,5.25,2a25.24,25.24,0,0,0,11,2.1c12.24-.06,24.6-1.59,36.83-2.19,27.62-1.34,55.25-2.32,82.8-4.68,8.27-.71,8.35-13.72,0-13-27.55,2.36-55.18,3.35-82.8,4.68-12.22.6-24.6,2.16-36.83,2.19a21.1,21.1,0,0,1-4.22-.34c-1.83-.38-.26,0-2-.85a28.91,28.91,0,0,0-10.1-2.91v13c49-6,99-.51,147.46-11.5l-8-4.54a79.33,79.33,0,0,1,4.56,15l6.27-8.22c-25.48,2.62-51,4.78-76.55,6.68q-18.75,1.39-37.51,2.62-9.84.66-19.67,1.27l-8.81.54-4.71.29c-.89.06-5.89-.29-2.67,1.11l3,3.89c1,2.9-.61,1.47.44.15,1.6-2-2.42,1.79-1.73,1.3l-9.55-3.88.07.2c2.6,6.72,12.35,5.9,12.77-1.73.38-6.71-1.46-12.91-2.3-19.48l-6.5,6.5a751,751,0,0,0,163.51-13c7.28-1.39,5.49-12.84-1.73-12.77a19.17,19.17,0,0,0-13.13,5.2c-4.42,3.92-.72,10.9,4.59,11.09-1.07-.66-1.32-.34-.73,1l.09,3.05a26.7,26.7,0,0,0,.56,4.54,20.09,20.09,0,0,0,4.71,8.69c4.56,5,11.19,7.25,17.74,5.36,3.65-1,5.1-4.48,4.54-8l-5.79-36.62c-.51-3.24-5-5.7-8-4.54-13.08,5.06-26.92,6.4-40.76,7.85q-22.59,2.34-45.17,4.6L587.86,456A7,7,0,0,0,591,454.2c3-2.47,2.28-8.59-1.32-10.21a18.33,18.33,0,0,0-6.84-1.19c-1.18-.06-2.35-.1-3.53-.17-2.07-.11-3.8-1.15.1.6l1.32,10.21L578.19,455c7-1.5,5.62-13.61-1.73-12.76a125.25,125.25,0,0,1-25.82.67c-8.54-.78-17-1.72-25.59-1.83-3.14,0-6.29,0-9.43,0q-3,.06-6,.18c-1.63.06-4.24.24-4.82.13-5-.93-10.28-4.37-15.26-1.33-6.11,3.74-3.38,10.88-.86,15.92,3.2,6.38,1.58,14.29.27,21.09-.91,4.69-2.69,9.54-2.91,14.34a44.88,44.88,0,0,0,1.47,11.33c1.33,6,5.13,12.85,10.38,16.19l3.28-12.11c-6.8-.21-13-5.28-19.68-6.53l3.88,9.55c5.57-8.59,7.39-18.48,8.67-28.47,1.23-9.67,2.32-19.36,3.48-29,.27-2.21-1.43-4.55-3.22-5.61-.27-.17-6.13-2.95-6.27-2.13.17-1,3.24,2.69,1.65-.23a6.51,6.51,0,0,0-2.05-1.91A7.09,7.09,0,0,0,478,445.2c-2.68,4.55-2.32,11.58-2.43,16.69-.13,6.36,1.2,12.88,2,19.18.68,5.08,2.4,8.5,7,11,5.87,3.11,12,5.76,18,8.63l3.28-12.11a327.91,327.91,0,0,1-34.36-4.1c-5.95-1-9.59,4.21-7.34,9.54,3.77,8.93,1.76,19.11,10.49,25.65,3.89,2.92,8.58,3.57,13.33,3.73,1.81,0,3.62.1,5.43.18a5.72,5.72,0,0,0,1.42.12c-1,.26-3.48-1.5-4-2.77l-.66-5c.5-1.51,4.34-4.72,1.16-2.86A6.93,6.93,0,0,0,488,520.8c1.77,6.13,9.68,5.56,14.68,5.8,13.63.67,27.25,1.71,40.88,2.34,7.19.33,9-11.51,1.73-12.77q-1.92-.39,2.31,1.49l1.68,6.32,0-.07-3,3.88c-.24.16-1.48.32-.09.17.89-.1,1.81-.38,2.71-.55,2.18-.41,4.38-.77,6.58-1.15,4.38-.78,8.78-1.23,10.58-6a6.39,6.39,0,0,0-1.67-6.33,7.09,7.09,0,0,0-3.42-1.85l-1.73,12.77c42.3-3.36,85.37-.24,126.8-11.09,3.65-.95,5.12-4.56,4.54-8-.69-4.15-6.44-16.15-1.7-19.51s3.76-12.72-3.28-12.11c-17.63,1.52-35.26,3-52.9,4.41-16.4,1.26-32.88,1.91-49.25,3.41-13.74,1.25-27.38,3.31-41.21,3-4.18-.07-8.36-.34-12.51-.8-2.9-.33-5.8-1.14-8.7-.41a27.93,27.93,0,0,0-6.72,3.18c-.94.54-1.88,1.13-2.85,1.62a4.44,4.44,0,0,0-1.07.59c-1.67.43-1,.63,2,.63-2.69-2-7.47-.6-8.89,2.33a52.83,52.83,0,0,0-2.66,7.24c-.74,2.3-2.06,4.12-2.22,6.61s2.12,5.83,4.77,6.26q-4.2-4.21-2.18-.54l.64.91a11.65,11.65,0,0,0,3.13,3.09,18.06,18.06,0,0,0,8,2.77c6.83.9,14,.3,20.85.57,15.65.6,31.27,2,46.93,1.95,31.26,0,61.32-8.55,92.16-12.27,3.51-.43,6.46-2.69,6.5-6.5,0-3.19-3-6.93-6.5-6.5Z" transform="translate(-362.84 -390.73)"/><path class="cls-2" d="M511.79,492.33c8.36,0,8.38-13,0-13s-8.38,13,0,13Z" transform="translate(-362.84 -390.73)"/><path class="cls-2" d="M592.87,404c-5.49-1.59-11.23-1.8-16.91-1.79-5.94,0-11.87.05-17.8.08l-35.81.17-20.4.1c-3.21,0-3.22,5,0,5l70.89-.34c6.27,0,12.62-.16,18.7,1.6,3.1.9,4.42-3.93,1.33-4.82Z" transform="translate(-362.84 -390.73)"/><path class="cls-2" d="M473.32,483.25a11.45,11.45,0,0,0-8.29.69,11.59,11.59,0,0,0-5.77,6.58c-.62,1.6-1.06,3.28-1.56,4.92s-1.37,3.35-.95,4.93a2.56,2.56,0,0,0,1.71,1.85,2.76,2.76,0,0,0,2.73-.9,29.17,29.17,0,0,0,3-3.79,33.37,33.37,0,0,0,4.58-9.73,1.88,1.88,0,0,0-1.8-2.36c-5.08.05-5.64,6.14-6.41,9.88a6.44,6.44,0,0,0-.08,3.26,3.76,3.76,0,0,0,1.33,1.72c1.2.95,2.71,2,4.32,1.66a1.79,1.79,0,0,0,1.3-1.3,5,5,0,0,0-.65-3.19c-.2-.41-.42-.81-.63-1.22,0-.08-.28-.65-.14-.28a2.31,2.31,0,0,1-.15-.53,1.88,1.88,0,0,0-2.29-1.3,1.91,1.91,0,0,0-1.31,2.29,8.33,8.33,0,0,0,.94,2.22c.14.26.42.81.47.91-.06-.13.09.3.11.35.15.4,0,0,.06-.24l1.3-1.3c.22,0,.41,0,.62,0a1.17,1.17,0,0,1-.25-.07c.38.19-.14-.08-.26-.14l-.61-.37c-.09-.06-.57-.43-.32-.22l-.44-.41c-.2-.15,0,0,.07.11.15.3,0,.35.05,0a11.85,11.85,0,0,1,.33-1.84c.3-1.45.53-2.95,1-4.37a3.78,3.78,0,0,1,.69-1.39,1.3,1.3,0,0,1,1-.53l-1.79-2.36a30.17,30.17,0,0,1-4.74,9.57c-.31.43-.64.84-1,1.24-.19.23-.39.46-.59.68l-.35.39c-.23.23-.21.22.06,0h1c.57.11.64.51.78.88,0-.2,0-.23,0-.1s0,.1,0-.08a17.59,17.59,0,0,0,.52-1.75c.34-1.12.68-2.24,1-3.36s.59-2,1-3a8.2,8.2,0,0,1,1.28-2.13,7.72,7.72,0,0,1,8.1-2.28c2.29.72,3.27-2.88,1-3.6Z" transform="translate(-362.84 -390.73)"/></g><g id="fill"><text class="cls-4" transform="translate(145.16 290.79) scale(1.12 1)">ANALYTICS</text><path class="cls-2" d="M372.48,616.43q-.14-43.14-.28-86.29c8.29,1.58,12.45,2.33,20.76,3.71q.06,18.27.1,36.53c5.08.85,7.62,1.25,12.71,2l-.09-36.53c8.28,1.26,12.43,1.83,20.74,2.9q.09,43.13.19,86.27c-8.3-1.06-12.44-1.64-20.71-2.89q0-19.29-.1-38.56c-5.09-.77-7.63-1.18-12.7-2q0,19.27.1,38.56C384.9,618.75,380.76,618,372.48,616.43Zm43.61-36.93c-3.5-2-5.25-3-8.74-5.07-6.35-.95-9.52-1.46-15.85-2.52l-.11-36.54c-7.05-1.19-10.57-1.81-17.61-3.14,3.52,2.56,5.29,3.84,8.81,6.37l.11,35.59Q399.38,577.06,416.09,579.5Zm-24.46,38.58-.11-38.56c-3.53-2.11-5.29-3.18-8.82-5.33l.12,37.6C386.34,614.33,388.1,615.58,391.63,618.08Zm33.4,5q-.11-41.35-.19-82.7c-7-.91-10.56-1.41-17.58-2.46,3.49,2.43,5.24,3.63,8.74,6l.18,73.18C419.72,619.5,421.49,620.69,425,623.05Z" transform="translate(-362.84 -390.73)"/><path class="cls-2" d="M437.62,551.42a26.17,26.17,0,0,1,.36-4.53,7.05,7.05,0,0,1,1.53-3.4,6.48,6.48,0,0,1,3.43-1.94,17.5,17.5,0,0,1,6-.21q15.47,1.6,31,2.62a17.93,17.93,0,0,1,5.93,1.21,8.55,8.55,0,0,1,3.44,2.52,8.06,8.06,0,0,1,1.6,3.65,26.42,26.42,0,0,1,.37,4.61q0,37.47.07,74.95c-8.33-.45-12.5-.72-20.83-1.37L470.43,591c-4.73-.36-7.1-.56-11.83-1l.06,38.55c-8.37-.76-12.54-1.19-20.89-2.15Zm52,4.44a23.06,23.06,0,0,0-.32-4A6.64,6.64,0,0,0,488,548.8a7.3,7.3,0,0,0-3-2.08,16.91,16.91,0,0,0-5.08-1q-15.51-1-31-2.61a15,15,0,0,0-5.17.17,5.84,5.84,0,0,0-3,1.7c-.35.52-.25,1.12.32,1.82a7.61,7.61,0,0,0,2.27,1.85,10.73,10.73,0,0,0,3,1.16,3.24,3.24,0,0,0,2.54-.28,3.35,3.35,0,0,1,2.69-1.63,23,23,0,0,1,3.22.08c7.69.73,11.55,1,19.25,1.62a9.16,9.16,0,0,1,5,1.54q1.65,1.3,1.65,5.82,0,33.38.07,66.75c3.56,2.14,5.34,3.2,8.89,5.3Q489.69,592.44,489.65,555.86ZM472,581.71c-6-.46-9-.71-15-1.27,0-9.42,0-14.14,0-23.56,0-.48,0-1,.05-1.42a3.84,3.84,0,0,1,.26-1.29c.17-.36,0-.88-.53-1.53a10.16,10.16,0,0,0-2.28-1.88,11.5,11.5,0,0,0-3-1.37,3,3,0,0,0-2.53.16,10.16,10.16,0,0,0-.84,4.68q0,14.58.05,29.15c10.89,1,21.75,2,32.66,2.75C477.28,584.38,475.52,583.49,472,581.71Zm-15,6.35c-3.55-1.86-5.33-2.79-8.88-4.68l.07,37.6c3.54,2.27,5.32,3.39,8.87,5.63Zm13.38-30a7,7,0,0,0-.22-1.8c-.14-.56-.7-.88-1.69-1-3.09-.25-4.63-.38-7.72-.65q-1.69-.15-1.95.66a5.5,5.5,0,0,0-.27,1.76c0,8.71,0,13.06,0,21.77,4.73.43,7.1.63,11.84,1C470.41,571.09,470.4,566.73,470.39,558Z" transform="translate(-362.84 -390.73)"/><path class="cls-2" d="M518.72,632V602.22l-5.19-.14a18.93,18.93,0,0,1-6-1,7.56,7.56,0,0,1-3.44-2.39,8.3,8.3,0,0,1-1.54-3.69,27.92,27.92,0,0,1-.37-4.77l0-45.1c8.39.35,12.59.48,21,.63q0,21.9,0,43.79a6.25,6.25,0,0,0,.27,1.91c.18.55.83.84,2,.86,3.14,0,4.71.07,7.84.09,1,0,1.56-.27,1.7-.82a7.86,7.86,0,0,0,.21-1.91V545.93c8.35,0,12.53,0,20.89-.15q0,22.54,0,45.1a28.85,28.85,0,0,1-.37,4.76,7.83,7.83,0,0,1-1.6,3.66,7.7,7.7,0,0,1-3.44,2.31,18.49,18.49,0,0,1-5.93.83h-5.19V632.2C531.17,632.2,527,632.15,518.72,632Zm26-36.66a2.73,2.73,0,0,0-1.11-2.55,6.13,6.13,0,0,0-2.75-1.12,8.93,8.93,0,0,0-2.92,0c-.92.15-1.44.44-1.59.83a2.67,2.67,0,0,1-1,1.3,3.85,3.85,0,0,1-2.18.46c-3.13,0-4.7,0-7.84-.08-1.84,0-2.93-.51-3.28-1.43a8.83,8.83,0,0,1-.54-3.16q0-21,0-42c-7.13-.14-10.69-.25-17.81-.54,3.56,2,5.34,3.06,8.91,5.07q0,19.27,0,38.55a11.65,11.65,0,0,0,.42,3.53,4.12,4.12,0,0,0,1.27,1.94,4.69,4.69,0,0,0,2.12.89,22.78,22.78,0,0,0,3.07.25c7.63.17,11.45.21,19.08.22a15.12,15.12,0,0,0,3.76-.36A4.5,4.5,0,0,0,544.77,595.3Zm-6.88,35.11V600.67c-3.52-1.29-5.28-1.95-8.8-3.27q0,14.1,0,28.2C532.61,627.54,534.37,628.5,537.89,630.41Zm6.88-35.11a2.06,2.06,0,0,0,.85,2.13,5.77,5.77,0,0,0,2.49,1.11,7.39,7.39,0,0,0,2.81,0,3.41,3.41,0,0,0,2-1,8.28,8.28,0,0,0,1.17-3,20.08,20.08,0,0,0,.32-3.7q0-21.64,0-43.3c-7.08.12-10.63.14-17.71.12,3.52,1.91,5.28,2.86,8.8,4.74V591c0,.4,0,1.07-.11,2A7.63,7.63,0,0,1,544.77,595.3Z" transform="translate(-362.84 -390.73)"/><path class="cls-2" d="M566.9,631.77q0-43.12,0-86.26c7-.21,10.44-.36,17.39-.71a19.68,19.68,0,0,1,2.81,0,3.79,3.79,0,0,1,2.38,1.35c3.94,4.06,5.9,6.08,9.84,10.1V543.92c8.22-.56,12.32-.88,20.53-1.63q-.07,43.14-.13,86.27c-8.2.74-12.3,1.06-20.5,1.62l.06-51a3.3,3.3,0,0,0-.53-1.86,13.26,13.26,0,0,0-1.37-1.7c-3.93-4.17-5.9-6.26-9.84-10.47l-.06,65.79C579.28,631.34,575.15,631.52,566.9,631.77Zm42.69-54.22c-3.46-6.82-5.19-10.23-8.65-17.09-5-5.12-7.49-7.7-12.48-12.9a3.09,3.09,0,0,0-1.33-.82,8,8,0,0,0-2.59-.16c-6.4.32-9.6.46-16,.67,3.48,2.17,5.22,3.24,8.69,5.38,2.71-.12,4.07-.18,6.78-.32a3.09,3.09,0,0,1,1.8.21,11.13,11.13,0,0,1,.85.85Q598.08,565.51,609.59,577.55ZM586,629.19l.06-67.46c-3.52-3.62-5.27-5.44-8.79-9.1q0,36.11-.05,72.22C580.68,626.6,582.44,627.47,586,629.19Zm32.23-2.28q.08-41.34.13-82.69c-6.94.62-10.41.89-17.35,1.37,3.47,1.62,5.2,2.42,8.67,4q0,36.64-.1,73.29C613,624.51,614.72,625.32,618.18,626.91Z" transform="translate(-362.84 -390.73)"/><path class="cls-2" d="M631,627.47l.15-86.27c8.45-.87,12.68-1.36,21.11-2.43Q652.12,581.9,652,625C643.6,626.11,639.39,626.6,631,627.47Zm19.5-4,.18-82.7c-7.17.9-10.76,1.32-18,2.07,3.59,1.53,5.39,2.28,9,3.77q-.07,36.58-.14,73.18C645.08,621.26,646.87,622,650.45,623.45Z" transform="translate(-362.84 -390.73)"/><path class="cls-2" d="M663.38,537.27q21.6-3.18,43-7.13l0,12.14c-8.88,1.69-13.32,2.48-22.22,4,0,9.76,0,14.64-.07,24.4,7.76-1.28,11.64-2,19.38-3.42,0,4.48,0,6.72,0,11.19-7.74,1.45-11.62,2.13-19.38,3.41,0,10.57-.05,15.85-.08,26.42,8.9-1.46,13.33-2.25,22.2-3.94,0,4.85,0,7.28,0,12.14q-21.45,3.95-43,7.11Zm37.27,0,4.17,3.51c0-3.43,0-5.15,0-8.57Q685,536,665,538.83c3.54,1.21,5.3,1.81,8.83,3C684.55,540.17,689.92,539.26,700.65,537.29Zm-2.94,36.58,4.17,3c0-3,0-4.57,0-7.62-7.75,1.44-11.62,2.12-19.39,3.38,0-11.19.05-16.78.08-28-3.53-1.14-5.29-1.71-8.82-2.89l-.09,36.06C683.31,576.4,688.12,575.6,697.71,573.87Zm6.9,32.5c-8.86,1.68-13.3,2.46-22.2,3.9l.09-30c-3.52-.95-5.29-1.44-8.81-2.42l-.1,38.08c10.75-1.64,16.12-2.54,26.83-4.51l4.17,3.5Z" transform="translate(-362.84 -390.73)"/><path class="cls-2" d="M681.09,430.16l6.73,44.46" transform="translate(-362.84 -390.73)"/><path class="cls-2" d="M471.32,485.45" transform="translate(-362.84 -390.73)"/></g></g></svg>